<svg xmlns="http://www.w3.org/2000/svg" viewBox="0 0 691.87 884.39"><defs><style>.cls-1,.cls-3,.cls-4{fill:#fff;}.cls-2{fill:#fff;}.cls-3{opacity:0.1;}.cls-4{opacity:0.95;}</style></defs><title>Asset 1</title><g id="Layer_2" data-name="Layer 2"><g id="Layer_1-2" data-name="Layer 1"><path class="cls-1" d="M322.13,48.81c-7.63-9.4-16.41-18.11-22.56-22.74h0c-.22-.16-.44-.33-.66-.48l-.65-.46c-.85-.59-1.64-1.09-2.34-1.48l-.44-.21-.08,0a1.42,1.42,0,0,0-.25-.12l-.24-.1v0h0a4.74,4.74,0,0,0-1.65-.49,12.49,12.49,0,0,1-2-1.83c-38.37-6-75.25-4.63-106.52,5.07-90.14,31-115.19,73.58-92,124.88,26.75-38.93,94.1-34.25,200.83-15.88-1.66,28.91-11.12,55.82-25,81.6a5.78,5.78,0,0,0,1.39,7.26c14.71,11.64,32.51,29.84,47.4,50.46.13.15.24.33.37.48h0l-5.71-.5c-17.85-1.46-41-2.52-72.68-3.39.05-1.86-4.14-3.19-7.23-4h0C209.34,260.16,190.77,255,170.84,256c-26.51.44-48.86,5.2-65.55,16.1-4.35,3.37-9.35,7.06-13.81,9.06-6.79,3.05-13.32,3.07-15.66,1.42-12.9-9.27-17.29-13.06-42.89-12.11C16.08,272.09,9.33,280.58,0,288.17.09,296-.42,307.4,1.3,307.46c5.6,1.35,3,19,6.2,36.39,3,18.6,5.71,34.67,15.44,45.39,9.5,8.4,26.09,10.85,35.15,5.43,8.52-16,12.75-43,14.07-74.55,1.26-6.68,5.52-8.27,12.73-4.45,9,6.35,6.53,28.6,22.91,61.15,9.31,18.49,25.41,28,47.84,32.25a87.87,87.87,0,0,0,19.69,1.21c1.06-.06,3-.22,3-.22h0c14.46-1.12,19.45-2.31,25.77-8.7,6.74-6.84,10.83-17.63,14.35-30.38,3.69-18.09,6.36-35.18,6.3-56.17-.23-6,.3-11.41,2.95-14.22,2.26-2.38,6-3.28,9.7-3.79a1.63,1.63,0,0,0,1.11-.76h0c21.45,3,50.21,10.73,73.3,16.83a125.63,125.63,0,0,1,11.07-20.58c1.09-1.64,2.22-3.25,3.4-4.8.35-.48.71-1,1.07-1.42.71-.94,1.45-1.86,2.19-2.76,1.12-1.36,2.26-2.7,3.43-4,.38-.44.78-.86,1.17-1.28l.59-.63.59-.63C346.65,265,360,256.47,374.44,252,384.74,169.31,354.88,89.08,322.13,48.81Zm-320,257.7c-.58-8.07-1-15.94,1.17-19.6,12.13-10.76,24.43-15.9,36.92-15-9,1.52-16.88,2.73-22.39,6.42C6.51,285.85,2.71,298.29,2.12,306.51Zm63.63,31.83a231.53,231.53,0,0,1-6.4,43.23C56.88,388.49,53,392.13,48,392.84c-15.71,1.43-25.21-6.53-29.51-19.68-7.57-21.12-7.68-44.44-5.67-71.48.86-8.95,3.93-16.16,9.7-18.76,14.58-6,34.61-2.74,40.08,10.23C67,304.88,66.87,320.92,65.75,338.34Zm15.1-47.93c-2.71-3.92-7.21-5-11.64-7.47,4-.16,8.07,2.64,11,3.5,4.8,1.13,15.7-6.72,28.2-12.5C87.8,284.48,87.07,289.53,80.85,290.41ZM206,376.21c-6.88,21.52-17.29,27.46-35.95,29a73,73,0,0,1-47.91-15.9c-10.25-11.05-15.94-26.2-21.9-47.66a110.08,110.08,0,0,1-1.56-46.95c2.67-11.8,19.38-23.84,53.79-26.42,16.92-1.46,29.91-.42,38,3.75,7.9,5.44,13.19,16.38,18,35.86C211,321.09,211,359.64,206,376.21ZM163.2,109.63c5.1-7.87,11.12-15.79,27.66-22-28.07,0-47.33,12.24-63.49,28.34,2.86-11.86,9.68-22.74,23.55-31.76C126.86,95.87,108.82,101,96.82,136,86,90,127.37,58.49,217.11,36.54c-39,15.88-47.75,32.58-58.16,39.7,27-11.33,52.93-19.47,76.2-19.6-26.91,8.24-35.93,16-40.12,23.82,32.09-7.79,65-6.22,99.27,0C236.65,80.46,197.54,89.67,163.2,109.63ZM282.78,216.38c12.88-20,19.46-46.52,22.06-77.08,5.12,25,1.39,51.3-5.27,73.33,14.8,14.14,28,31.67,36.34,55.07C318.4,245.67,300.76,226.46,282.78,216.38Z"/><path class="cls-1" d="M691.32,119C683.58,63.52,639.47,22.36,592,7.26c-40.27-11.08-67.13-1.48-86.34,29.42-1.28-11.23,2.62-24,10.69-36.68-18.06,12.73-26.09,29.8-27,50-23.38-.69-38.15,4.58-46.6,14.24,10.87-2,20.8-2.6,28.32,0-12.44,1.86-22.93,7.74-32.43,15.83h0l-.27.22c.36.7.72,1.42,1.08,2.15h0c.53,1.1,1.06,2.21,1.57,3.36,1,2.3,2.05,4.73,3,7.29.65,1.7,1.29,3.47,1.89,5.3.16.45.32.91.46,1.38h0c.13.38.25.76.37,1.15s.24.77.37,1.16c.24.79.48,1.59.73,2.38s.46,1.61.7,2.43.46,1.65.68,2.49c.6,2.23,1.17,4.52,1.72,6.9q1.44,6.21,2.66,13,.33,1.8.63,3.66c.13.76.25,1.53.38,2.29,0,.09,0,.19,0,.28.29,1.85.57,3.72.84,5.63l.33,2.41c.18,1.34.36,2.69.53,4.06q.83,6.65,1.48,13.78c2.81,30.53,3.32,67.74,1.57,112.16,23.74,22.7,37.81,57.89,37.81,94.95,0,31.84-10,61.85-28.23,84.5-16.23,20.18-37.23,32.45-60,35.25-6,37.88,10.88,91.2-21.13,115,12-2.94,24.05-13.66,33.75-27.08,27.76-50,107.11-60,127.54-145.73-7.43,10.37-29.81,25.68-39.81,31.36,22.61-45.47,38-101,42.8-154h0l.92,1.42c14.93,8.64,21.28,40.86,21.64,86.93,11.4-49.4,11.93-90.07-10.63-119.4,2.44-25.87-1.94-49.25-14.58-69.58,11.89,10.06,26.2,15.46,42.37,17.27-12-7.13-21.22-14.78-23.65-23.58,26.42,5.32,51.3,5.89,72.25-5.84,16.32-10.83,29.78-27.22,37-55.58,3.24,13.47-.62,29.64-6.9,46.71C683.89,168.43,694.43,141,691.32,119ZM476.62,68.92c18.73,2.8,44.13,28.34,62.84,54.19C521.92,110.27,504.57,99.84,488,98.52c10.17,8.78,17.4,23.82,23.73,40.78-17.88-22-39.56-41-64.51-57.61C454.32,74.94,463.74,70.31,476.62,68.92Zm72.21-9.64C550,68.92,566.1,87.47,586.92,106c-26.47-22.51-53-41.33-79.53-52.64,17.8-23,32.07-37.76,56.81-36.13C585.68,19.28,605,30.94,621,62.7,591.59,33.66,545.74,36.3,548.83,59.28Z"/><polygon class="cls-1" points="352.32 773.36 352.32 778.68 352.07 773.36 352.32 773.36"/><polygon class="cls-1" points="352.32 783.72 352.32 778.68 352.57 783.72 352.32 783.72"/><path class="cls-1" d="M352.32,787.66q.48,15.8.49,23.43c0,1,0,2.08,0,3.12l-.59.42Z"/><path class="cls-1" d="M353.8,731.19h.49a4.1,4.1,0,0,1-.49,2.22h-.5A7.83,7.83,0,0,0,353.8,731.19Z"/><path class="cls-1" d="M354.54,751.91a17.69,17.69,0,0,1-.25-4.2c0-5.25.25-8.38.74-9.37Q355,743,354.54,751.91Z"/><path class="cls-1" d="M355,793.09q.17,7.44.21,19.4l-1.44,1v-3.15c0-3.12-.09-5.5-.24-7.15q0-6.41-.5-18.75-.51-17.75-.49-26.62a177.2,177.2,0,0,1,1-22l.24-1H354v3.45l-.48,16.78v1.23a43.5,43.5,0,0,1,1.1,9.24c.08,3.53.13,6,.13,7.28C354.94,777.3,355,784.06,355,793.09Z"/><path class="cls-1" d="M359.22,801.72l-.21,8.1-1.51,1.08v-.8q0-7.64-.49-22.93l-.26-28.61q0-4.18.5-12.08l.25-6.65.24-2.22h.5v23.91l.49,28.86.24,5.67A47.63,47.63,0,0,1,359.22,801.72Z"/><path class="cls-1" d="M360,786.43q.51,14.75.5,22.38l-1.29.91c0-.76,0-1.45.05-2.08q.5-6.9.5-10.61L359,763.75v-4l.25-.24q.5,5.43.5,7.65Q360,773.61,360,786.43Z"/><polygon class="cls-1" points="360.71 765.22 360.95 793.09 360.71 793.09 360.46 765.22 360.71 765.22"/><path class="cls-1" d="M361.19,755.85a132.18,132.18,0,0,1,.75-16.52v39Q361.19,767.21,361.19,755.85Z"/><path class="cls-1" d="M362.93,730.2a6.77,6.77,0,0,1,0,2.47l-.75-4.43A3.62,3.62,0,0,1,362.93,730.2Z"/><path class="cls-1" d="M364.4,739.57v-2.46a37.15,37.15,0,0,0-.74-7.4,12.8,12.8,0,0,1,1,5.18Z"/><path class="cls-1" d="M365.15,779.52q0,15.79.24,23.68-.75-10.59-.74-31.32V756.09Q365.15,764,365.15,779.52Z"/><path class="cls-1" d="M365.39,762q0-13.8,1-24.66-.5,14.8-.5,21.95V797l-.24-17.75C365.47,775.51,365.39,769.74,365.39,762Z"/><polygon class="cls-1" points="366.12 800 366.38 800 366.38 804.63 366.12 804.81 366.12 800"/><path class="cls-1" d="M370.08,791.36c0,3.8,0,7.34,0,10.65l-.26.2V801l-.25-38-.25-6.4v-2.73h.5v6.18Z"/><polygon class="cls-1" points="373.77 734.89 374.26 734.89 373.77 748.46 373.53 748.46 373.77 734.89"/><polygon class="cls-1" points="374.76 726.02 375.5 729.21 375.25 729.21 374.26 726.02 374.76 726.02"/><path class="cls-1" d="M403.85,768.43c0,2.93,0,6.19,0,9.77l-.49.35C403.46,772.55,403.61,769.19,403.85,768.43Z"/><rect class="cls-1" x="405.59" y="758.32" width="0.24" height="8.64"/><polygon class="cls-1" points="405.59 770.65 405.83 770.65 405.83 776.83 405.59 776.99 405.59 770.65"/><path class="cls-1" d="M408.8,750.43l.07,24.25-.77.54q-.06-10.94-.05-23.31h-.5v9.61h-.24V750.43Z"/><polygon class="cls-1" points="413.73 750.43 413.97 750.43 413.97 771.09 413.73 771.26 413.73 750.43"/><path class="cls-1" d="M417.18,754.37a14.14,14.14,0,0,1-.26,3.21l-.24-1-.24,1h-.25v-7.4C416.85,750.68,417.18,752.08,417.18,754.37Z"/><path class="cls-1" d="M419.4,750.18q.08,8.85.15,17l-.48.34-.17-17.31Z"/><path class="cls-1" d="M424.33,742.29l2,.74h-4.18C422.93,742.2,423.66,742,424.33,742.29Z"/><path class="cls-1" d="M420.88,728h1.23a17.53,17.53,0,0,1,3.32.37l3.09.62v.5h-6.65C421,729.47,420.71,729,420.88,728Z"/><path class="cls-1" d="M422.35,744.76c-.16,0-.41-.17-.74-.5A.38.38,0,0,0,422,744a.41.41,0,0,1,.37-.24h6.42v.49a1.68,1.68,0,0,1-1.24.5Z"/><path class="cls-1" d="M429.26,727.25h-9.13v.49l-.49-1.48h3.7l7.4-.24a2.62,2.62,0,0,1,1.36-.13,1.84,1.84,0,0,1,1.1.86,4.24,4.24,0,0,0-1.72.25v.25l1.72.24v.25l-4.68.24Z"/><path class="cls-1" d="M421.87,731a1.42,1.42,0,0,1-1-.49v-.26h3.69a56,56,0,0,1,5.92-.24h3.94v.74L433,731Z"/><path class="cls-1" d="M305.47,840.68v3a29.42,29.42,0,0,0,.2,3.78l-.53.38c-.11-1.16-.17-2.13-.17-2.93a64.45,64.45,0,0,1,.5-6.91l.24,1A4.47,4.47,0,0,1,305.47,840.68Z"/><path class="cls-1" d="M306,830.58h.5l-.5,3.94c-.33,0-.48-.08-.48-.24Z"/><path class="cls-1" d="M317.3,827.37h.25v1.72a52.84,52.84,0,0,1-.25,5.92c0,1.15,0,2.48-.13,4,0,.13,0,.25,0,.37l-.6.43v-.07l.24-5.66a41,41,0,0,0,.26-5.43A2,2,0,0,1,317.3,827.37Z"/><path class="cls-1" d="M324,831.31l.24,1v2.07l-.64.45c0-.77.07-1.44.14-2A3.4,3.4,0,0,1,324,831.31Z"/><path class="cls-1" d="M520.94,623.33a6.13,6.13,0,0,0-4.5,0l-16,6.42L474.6,531.58c-23.11,13.2-37.11,26.2-51.45,43.91.2,26.47-4.44,49.21-15.31,67.09-10.56,17.09-48.92,37.83-79,64.95-19.72,18.68-39.46,28.74-63.21,33.24-15.15,1.21-28.36.77-36.48-3.33,19.63-.79,38.6-7.92,57.06-20q-23.6,8.07-53.22,4.72c-16.89-1.68-30.81-26.49-52.4-66.68a271.27,271.27,0,0,0,29-10.45c49.73-21.41,86.54-61.55,107-109.35,3.05,17,.07,36.17-7.94,57.19,24-28,25.72-46.89,20.73-101.78-1-13.81-2.09-27-2.42-40.6a127.67,127.67,0,0,1-21.57-45.08c-4.88,16.14-11.38,28.8-15.68,42.92-1.68-15.07-1.39-32,.44-50.31-17.65,54.21-61.89,87.18-108.27,110.91-6.64-40.58-14.64-62.21-39.78-72.29a116.46,116.46,0,0,0-41.37-5.34h0a113.42,113.42,0,0,0-40.78,9.81h0c-2.65,20.69-.05,45.24,4.65,65.9a40.36,40.36,0,0,1,.6,14.45c-7.46,54.27-19.81,95-32.62,118.39a2.43,2.43,0,0,0,.57,3.09c12.31,10.34,29.6,14.11,49.14,14.88a63.35,63.35,0,0,1-20.07,10.06c35.49,1.87,69.47-.44,101.54-7.92h0l31,59.61-19.19,27.22L130.66,785.3l122.58,99.09,49.92-35.19h0c-.11-1.15-.18-2.24-.18-3.32l.25-4.43.5-6.16V835l1.48-6.15,2-1.24a4.52,4.52,0,0,0,1-.24,1.2,1.2,0,0,0,.75-1.24v-.24l1.47,1.48a6.07,6.07,0,0,1,1.48-1.24,1.88,1.88,0,0,0,.36-.86,1.91,1.91,0,0,1,.37-.88l1.72,1.5,2.23-.51v-.24l1,.24a.86.86,0,0,0,.24-.61.87.87,0,0,1,.25-.62,2.59,2.59,0,0,1,1,1.74l.48-1.5H320a13.19,13.19,0,0,1,.11,3.09c-.09,1.08-.11,1.61-.11,1.61s.07.48.24,1.48l.25-7.15c1,.15,1.47.82,1.47,2a17,17,0,0,1-.13,2.1,18,18,0,0,0,.13,3.33c0,1,0,2.67-.06,5.16l.34-.23h0c0-1.33.11-2.38.2-3.19s0-2.12.13-3.93a30.22,30.22,0,0,0-.13-4.94l3,1.24a5.43,5.43,0,0,1,.48.62,4.69,4.69,0,0,0,.51.61c.31.33.31.88,0,1.72l.24,1.48c0,.79-.09,2-.24,3.46l24.4-17.21h0l0-.79.27-12.08c0-3.44-.18-8.78-.51-16V765l-.24-13.83c0-2.12.17-5.49.48-10.1a12.18,12.18,0,0,0,.11-1.31c-37.65,30-70.77,50.49-95.65,53.47-32,.57-44.53-18.93-54.08-41.47,34.94,37.08,83.79,19.17,149.73-21.3l.16-3.44.48-1.24,1.48.49.75.75a2.15,2.15,0,0,1,1.23-.88,1.36,1.36,0,0,0,1-1.35v-.24l1,.73.72-.73c0,.15.18.24.51.24a.8.8,0,0,0,1.24-.24,1,1,0,0,1,.72-.27.69.69,0,0,1,.44.16c11.34-7.13,23.14-14.85,35.47-23-8.87,7.9-17.58,15.49-26.09,22.68a7.81,7.81,0,0,1,1.3,1.41,6.15,6.15,0,0,1,.48.62c.16.26.49.3,1,.13l1,2.71H374l-.24-2.23a3.51,3.51,0,0,1-.25-2.09,6.35,6.35,0,0,1,1.73-1.83,11.42,11.42,0,0,1,2,5.91l-.51,17c0,1.3-.06,3.07-.24,5.3a30.9,30.9,0,0,0,0,5.31q0,8.86.51,26.62l-.27,6.42.27,5.91,0,1.87,21.73-15.31h0c0-1.24,0-2.57,0-4.05l.24-17.51-.24-21.7a9.43,9.43,0,0,1,0-3.2,30.32,30.32,0,0,0,.24-3.22,6.06,6.06,0,0,0-.24-1.72,5,5,0,0,1-.24-1.72,4.88,4.88,0,0,1,0-3.22,1.87,1.87,0,0,1,1.72-.73h.72a42.83,42.83,0,0,0,4.7.62c1.3.09,2.36.11,3.2.11l5.18-.24c3,.17,7.39.24,13.32.24a27.64,27.64,0,0,0,3.95-.24c1.15-.16,2.12-.31,3-.49a2.47,2.47,0,0,1,1,.24c.31.18.64.33,1,.49l-.49,1.74a.8.8,0,0,1,.62,1,6.79,6.79,0,0,0-.13,1.24,1.48,1.48,0,0,0,.24,1,2.55,2.55,0,0,0-1.21.26l1.45.73a2.18,2.18,0,0,1-1.58.38,10.43,10.43,0,0,0-1.11-.14,1.44,1.44,0,0,0-1,.25,7.82,7.82,0,0,1,2.23.24c1,0,1.45.59,1.45,1.72l.51,1c.66.84,1,1.46.86,1.85s-.62.89-1.61,1.37a3.8,3.8,0,0,1,1.48,3.44c-.15,1-1,1.48-2.45,1.48l1.48,1.23c.48.51.57.93.24,1.24a5.27,5.27,0,0,1-2.95,1.23,2.86,2.86,0,0,1-1.24-.24l-3.22-.48,1-.75a.92.92,0,0,0-1.47,0,4.7,4.7,0,0,1-3.44,1.23h-3.95v.24c.31.33.57.51.73.51l-.49.73h5.43v.51l-5.43.24V749h7.15v.24a8.86,8.86,0,0,1-2.47.25,22,22,0,0,1-4,.24c-.66,0-1,.42-1,1.23L422,765.4,458.1,740v-3.86a47.85,47.85,0,0,1,.26-5.91h.24l.49,1,.48-3a1.39,1.39,0,0,1-1-.5c1.3-1,2.39-.82,3.2.5l.75-1.23c.49-1,1.15-1.15,2-.51a1.72,1.72,0,0,0,1.24.51,4.53,4.53,0,0,0,1.34-.75,4.33,4.33,0,0,1,1.37-.73,8.43,8.43,0,0,1,2.23-.26,5.48,5.48,0,0,1,1.72-.25v-1.23l4.68,1.48a1.43,1.43,0,0,1-.25-1,2,2,0,0,1,1.37.36,2.15,2.15,0,0,1,.35.9h0l.63-.45h0a2.42,2.42,0,0,0-.13-.31.21.21,0,0,1,.24-.24l.22.33h0L587.17,649ZM145.34,476c.71.38,1.08.75.71,1a281.89,281.89,0,0,1-42.35,21h0c-.77.31-1.54.59-2.29.86-15.09,5.53-23,7.41-29.43,3.53-3.9-2.5-6.26-11.36,2.17-16,2.71,3.35,8.11,3.73,15.46,3.13,8.93-.71,19.47-4.43,30.54-8.49,4.63-1.7,12.66-4.28,17.23-5.74A10.47,10.47,0,0,1,145.34,476Zm-16.28-5.45c1.8.12,3.57.29,5.32.48,1.09.12,2.17.26,3.23.4s2.12.3,3.16.46l-2.44.72-2.45.76-.53.17c-1.2.38-2.42.78-3.64,1.2l-.77.26h0c-1.61.57-3.25,1.12-4.86,1.7s-3.24,1.17-4.85,1.74c-2,.73-4,1.43-6,2.14-1.21.44-2.42.86-3.61,1.26-13.7,4.69-26.42,8-35.31,4.39-1-5.23-1.48-8.56-.49-14,10.83-1.1,22-2,33-2.16,1.77,0,3.53,0,5.27,0l3.33,0h.33l2.45.06c.58,0,1.15,0,1.72.05.33,0,.66,0,1,0,.73,0,1.44.07,2.14.11h0l2.05.11,1.75.13A1.23,1.23,0,0,1,129.06,470.55ZM67.8,462.66C69.87,461,74,459.88,81,459.73a20.57,20.57,0,0,1,6.19-2.34c12.2-2.12,26.95.09,41.13,1.43-13.1-.48-28-1.21-37.71,0a19,19,0,0,0-8.53,3A32,32,0,0,0,66.54,466C65.88,464.76,66.54,463.81,67.8,462.66ZM94.22,655.4c8.31-5.41,15.37-11.12,20.27-17.4a299.18,299.18,0,0,1-66.15,0c17.49-26.82,24.6-67.4,29.12-106.42,4.12,27,6.63,51.12,8,69.52,5.8-8.78,11.56-23.27,17.29-40.85.24,24.37-.22,46.54-2.36,63.43,39.74-1.26,75.25-6,105.25-15.26C176.77,628.45,137.18,642.8,94.22,655.4ZM435.91,749H432.2c.34-.15.71-.33,1.13-.48a3.92,3.92,0,0,1,1.59-.27,1.32,1.32,0,0,1,1,.27Z"/><path class="cls-1" d="M434.92,748.2a1.32,1.32,0,0,1,1,.27V749H432.2c.34-.15.71-.33,1.13-.48A3.92,3.92,0,0,1,434.92,748.2Z"/><path class="cls-1" d="M478.21,724.65a2.15,2.15,0,0,1,.35.9h0l-1.78,1.23v0l-2,1.43v0l-3.64,2.56-.77.53h0L458.1,740v-3.86a47.85,47.85,0,0,1,.26-5.91h.24l.49,1,.48-3a1.39,1.39,0,0,1-1-.5c1.3-1,2.39-.82,3.2.5l.75-1.23c.49-1,1.15-1.15,2-.51a1.72,1.72,0,0,0,1.24.51,4.53,4.53,0,0,0,1.34-.75,4.33,4.33,0,0,1,1.37-.73,8.43,8.43,0,0,1,2.23-.26,5.48,5.48,0,0,1,1.72-.25v-1.23l4.68,1.48a1.43,1.43,0,0,1-.25-1A2,2,0,0,1,478.21,724.65Z"/><path class="cls-1" d="M479.53,724.87l-.32.22h0a2.42,2.42,0,0,0-.13-.31.21.21,0,0,1,.24-.24Z"/><path class="cls-1" d="M137.61,471.43c-1.06-.14-2.14-.28-3.23-.4-1.75-.19-3.52-.36-5.32-.48a1.23,1.23,0,0,0-.27,0L127,470.4l-2.05-.11c.25.14.52.29.8.43l1.28.69a15,15,0,0,1,1.7,1.06,7.23,7.23,0,0,1,1.11.95,5.39,5.39,0,0,1,.6.74,3.67,3.67,0,0,1,.44.83h0l.77-.26c1.22-.42,2.44-.82,3.64-1.2l.53-.17,2.45-.76,2.44-.72C139.73,471.73,138.68,471.57,137.61,471.43Z"/><path class="cls-1" d="M116.72,416.1a56.22,56.22,0,0,1-16,15.2h0a113.42,113.42,0,0,0-40.78,9.81h0C55,433.19,40,428,32.2,419.23c22.15,8.3,35.87,8.14,37.87,5.69,1.52-2.48-12.22-4.3-9.66-6.21,9.48-7.18,22.41-5.63,36.45.4C103.41,422.19,110,420.79,116.72,416.1Z"/><path class="cls-2" d="M140.77,471.89l-2.44.72c-.81.25-1.63.49-2.45.76l-.53.17c-1.2.38-2.42.78-3.64,1.2l-.77.26h0a3.67,3.67,0,0,0-.44-.83,5.39,5.39,0,0,0-.6-.74,7.23,7.23,0,0,0-1.11-.95,15,15,0,0,0-1.7-1.06l-1.28-.69c-.28-.14-.55-.29-.8-.43l2.05.11,1.75.13a1.23,1.23,0,0,1,.27,0c1.8.12,3.57.29,5.32.48,1.09.12,2.17.26,3.23.4S139.73,471.73,140.77,471.89Z"/><path class="cls-3" d="M140.77,471.89l-2.44.72-2.45.76-.53.17c-1.2.38-2.42.78-3.64,1.2l-.77.26h0a3.67,3.67,0,0,0-.44-.83,5.39,5.39,0,0,0-.6-.74,7.23,7.23,0,0,0-1.11-.95,15,15,0,0,0-1.7-1.06l-1.28-.69c-.28-.14-.55-.29-.8-.43l2.05.11,1.75.13a1.23,1.23,0,0,1,.27,0c1.8.12,3.57.29,5.32.48,1.09.12,2.17.26,3.23.4S139.73,471.73,140.77,471.89Z"/><path class="cls-4" d="M140.77,471.89l-2.44.72-2.45.76-.53.17c-1.2.38-2.42.78-3.64,1.2l-.77.26h0a3.67,3.67,0,0,0-.44-.83,5.39,5.39,0,0,0-.6-.74,7.23,7.23,0,0,0-1.11-.95,15,15,0,0,0-1.7-1.06l-1.28-.69c-.28-.14-.55-.29-.8-.43l2.05.11,1.75.13a1.23,1.23,0,0,1,.27,0c1.8.12,3.57.29,5.32.48,1.09.12,2.17.26,3.23.4S139.73,471.73,140.77,471.89Z"/><path class="cls-3" d="M116.72,416.1c-6.68,4.69-13.31,6.09-19.86,3-14-6-27-7.58-36.46-.4-2.55,1.91,11.19,3.73,9.67,6.21-2,2.45-15.72,2.61-37.87-5.69-2.75-4,5.88-11.88,12.06-19-2.08,5.47-4.18,10.95-3.88,13.67v0c16.27-8.09,39.23-7.15,61,1.41,7.5,2.59,14.72-1.84,11-13.67C116.06,405.28,119.28,410.41,116.72,416.1Z"/><path class="cls-1" d="M295.13,23.28l-.24-.1v0A1.34,1.34,0,0,1,295.13,23.28Z"/><path class="cls-1" d="M361.1,318.4c-.19.35-.37.7-.56,1.07.19-.36.38-.72.58-1.08h0l.69-1.24C361.56,317.56,361.33,318,361.1,318.4Zm2.32-4-.38.64c.14-.24.29-.47.44-.7l.41-.67Zm-3.6,6.4c-.23.46-.46.9-.65,1.36.2-.46.43-.9.66-1.35h0c.08-.17.16-.33.25-.49s.21-.43.33-.64C360.21,320.06,360,320.44,359.82,320.83Zm36-35.35v0l0,0ZM386,290.77c.9-.59,1.81-1.15,2.72-1.69C387.75,289.61,386.85,290.18,386,290.77Zm-1.34.9c-.41.29-.82.58-1.22.88.4-.3.81-.59,1.22-.87l1.33-.91C385.5,291.06,385.05,291.36,384.61,291.67Zm-5.78,4.48c-.34.29-.68.59-1,.9.5-.45,1-.89,1.53-1.33l.29-.24,1.09-.9C380.09,295.09,379.45,295.6,378.83,296.15Zm1.9-1.57.42-.33.14-.12C381.1,294.27,380.91,294.43,380.73,294.58Zm-5.51,4.92c-.2.19-.4.39-.59.59.38-.38.76-.76,1.15-1.13Zm1.78-1.72-.33.32.53-.48.62-.57Zm-13.58,16.65-.38.64c.14-.24.29-.47.44-.7l.41-.67Zm-2.32,4c-.19.35-.37.7-.56,1.07.19-.36.38-.72.58-1.08s.46-.83.7-1.24C361.56,317.56,361.33,318,361.1,318.4Zm-1.28,2.43c-.23.46-.46.9-.65,1.36.2-.46.43-.9.66-1.35h0l.26-.49c.1-.21.21-.43.33-.64C360.21,320.06,360,320.44,359.82,320.83Zm-4.08,82.37q1.14,3,2.48,5.92Q356.9,406.23,355.74,403.2Zm-5.51-51.69c-.12.84-.23,1.7-.32,2.57.23-1.94.51-3.87.85-5.77C350.56,349.37,350.39,350.43,350.23,351.51Zm-1.05,15.13c0-.52,0-1,0-1.55,0,.51,0,1,0,1.55,0,1.51,0,3,.1,4.49C349.21,369.64,349.18,368.15,349.18,366.64Zm.88,13.75q.49,3.84,1.26,7.56C350.82,385.47,350.39,383,350.06,380.39Zm-3.68-46.13s0,.08,0,.13a.69.69,0,0,1,.05-.13.06.06,0,0,1,0,0A.05.05,0,0,0,346.38,334.26ZM472.52,434.35l.24-.4.05-.11C472.71,434,472.61,434.18,472.52,434.35Zm-2.33,3.83a1.13,1.13,0,0,0,.1-.13c.26-.4.5-.8.74-1.21Zm-2.94-143.71c-.6-.81-1.17-1.63-1.77-2.45s-1.2-1.58-1.83-2.36q2.78,3.51,5.3,7.33C468.39,296.14,467.83,295.3,467.25,294.47ZM467,443c.22-.3.43-.6.64-.91s.24-.34.35-.52Zm-2.48,3.36c.63-.8,1.24-1.62,1.84-2.46l.5-.71C466.11,444.21,465.33,445.27,464.53,446.31ZM349.18,366.64c0-.52,0-1,0-1.55,0,.51,0,1,0,1.55,0,1.51,0,3,.1,4.49C349.21,369.64,349.18,368.15,349.18,366.64Zm.88,13.75q.49,3.84,1.26,7.56C350.82,385.47,350.39,383,350.06,380.39Zm.17-28.88c-.12.84-.23,1.7-.32,2.57.23-1.94.51-3.87.85-5.77C350.56,349.37,350.39,350.43,350.23,351.51Zm5.51,51.69q1.14,3,2.48,5.92Q356.9,406.23,355.74,403.2Zm4.08-82.37c-.23.46-.46.9-.65,1.36.2-.46.43-.9.66-1.35h0c.08-.17.16-.33.25-.49s.21-.43.33-.64C360.21,320.06,360,320.44,359.82,320.83ZM386,290.77c.9-.59,1.81-1.15,2.72-1.69C387.75,289.61,386.85,290.18,386,290.77Zm-1.34.9c-.41.29-.82.58-1.22.88.4-.3.81-.59,1.22-.87l1.33-.91C385.5,291.06,385.05,291.36,384.61,291.67Zm-3.32,2.46c-.19.14-.38.3-.56.45-.64.51-1.28,1-1.9,1.57-.34.29-.68.59-1,.9.5-.45,1-.89,1.53-1.33l.29-.24c.5-.42,1-.83,1.51-1.23.33-.27.67-.53,1-.79ZM377,297.78l-.33.32.53-.48.62-.57Zm-1.78,1.72c-.2.19-.4.39-.59.59.38-.38.76-.76,1.15-1.13Zm-11.8,14.93-.38.64c.14-.24.29-.47.44-.7l.41-.67Zm-2.32,4c-.19.35-.37.7-.56,1.07.19-.36.38-.72.58-1.08h0l.69-1.24C361.56,317.56,361.33,318,361.1,318.4Zm34.71-32.93h0v0l0,0v0ZM431.44,450.8l-.21.09.28-.11Zm30.66-1.44c.41-.49.82-1,1.22-1.48s.82-1,1.21-1.57C463.74,447.34,462.93,448.36,462.1,449.36Zm-9.63-248c0-.37,0-.74,0-1.1,0,.52,0,1.05.05,1.58C452.47,201.68,452.47,201.52,452.47,201.36Zm-.26-8.12c0-.31,0-.63,0-.94,0,.74.06,1.48.08,2.23C452.24,194.1,452.22,193.67,452.21,193.24Zm-.86-17c0-.47-.06-.94-.1-1.41l.15,2.35C451.39,176.89,451.37,176.57,451.35,176.26Zm-.67-9.15c0,.23,0,.47.05.7v-.15C450.71,167.47,450.7,167.28,450.68,167.11ZM431.79,473.59l.22-.1q.6-.28,1.2-.6Zm-2.52-21.93-1.18.44c.4-.13.8-.28,1.2-.44ZM327.1,437.08a2.59,2.59,0,0,1-.19-.31h0l0,0c-.53-.88-1.07-1.77-1.59-2.67s-.95-1.68-1.42-2.53l-.07-.11.06.12c.47.84.95,1.68,1.41,2.52s1.08,1.8,1.61,2.69v0a2.7,2.7,0,0,0,.2.31c.1.17.21.34.32.51C327.31,437.42,327.21,437.25,327.1,437.08Zm1.26,2c.23.4.47.76.74,1.14C328.84,439.83,328.59,439.45,328.36,439.07Zm7.72,10.52c-.47-.56-.93-1.12-1.39-1.69.2.26.42.52.63.78s.51.62.75.92l.57.68Zm3.64,4.14c-.43-.45-.85-.91-1.26-1.37.41.46.83.92,1.25,1.37q.3.33.63.66Zm3.35,3.45c-.57-.56-1.13-1.13-1.7-1.71l-.71-.73a9.69,9.69,0,0,0,.7.73l1.7,1.72.58.54Zm51.26,23.89-2.31-.18,2.32.19c1.54.08,3.08.13,4.65.13C397.42,481.21,395.87,481.16,394.33,481.07Zm12.66-.31-.69.09.7-.08.39,0Zm3.33-.42-1.45.2c.49-.05,1-.12,1.46-.19l.06,0Zm14.47-3.77-1.76.62,1.76-.61c.45-.17.89-.33,1.32-.51ZM414,479.66c-.56.12-1.13.22-1.69.33.57-.1,1.13-.2,1.7-.32l.85-.19Zm.76-24.59a1.07,1.07,0,0,1-.25,0l.26,0,.74-.08ZM391.71,286.63l-.51.18.51-.17.6-.19Zm-3.13,1.13-1.42.57,1.42-.56.36-.15Zm-25.85-22.51c-.19.11-.39.21-.58.33l.59-.32c1.18-.64,2.38-1.26,3.59-1.84C365.11,264,363.92,264.61,362.73,265.25ZM359.64,267c-.15.1-.3.2-.46.29l.47-.28,1.53-.9C360.67,266.41,360.15,266.7,359.64,267Zm-2.58,1.61-1,.67,1-.66.16-.11Zm-4.35,51.83h0l.06-.12A.75.75,0,0,0,352.71,320.45Zm-4.4,8.93c.06-.15.13-.3.2-.44s.09-.24.14-.36C348.53,328.85,348.42,329.11,348.31,329.38Zm-1.93,4.88c0,.08-.07.16-.09.23a.09.09,0,0,0,0,.05l0,0a.49.49,0,0,1,0-.11.69.69,0,0,1,.05-.13.06.06,0,0,1,0,0A.05.05,0,0,0,346.38,334.26Zm-7.8-49.69-.86,1c.3-.32.58-.65.87-1,.49-.55,1-1.09,1.48-1.62C339.57,283.48,339.07,284,338.58,284.57Zm-1.72,2-.58.71.59-.7.85-1Zm-3.46,4.28c-.27.35-.53.71-.79,1.06l.8-1.06.22-.29Zm-4.09,5.73,1.22-1.8C330.11,295.33,329.69,295.92,329.31,296.54Zm-1.23,1.86-.57.9c-.11.2-.22.38-.35.58s-.4.61-.58.92l-.92,1.57c.32-.52.63-1,.94-1.56.49-.81,1-1.62,1.5-2.42l1.2-1.84C328.88,297.16,328.48,297.78,328.08,298.4ZM324.73,304c-.18.34-.37.68-.54,1,.18-.34.37-.68.56-1,.3-.53.6-1.06.91-1.58Zm-1.85,3.46-.53,1,.54-1c.24-.48.5-1,.75-1.44C323.37,306.45,323.12,306.93,322.88,307.42ZM322.3,428.5c-.44-.86-.86-1.71-1.27-2.58.39.86.81,1.72,1.25,2.58s1,1.87,1.46,2.78C323.26,430.35,322.77,429.44,322.3,428.5Zm-1.3-2.66a2.56,2.56,0,0,1-.23-.47h0a3.51,3.51,0,0,0,.22.48,0,0,0,0,0,0,0s0,0,0,.05h0S321,425.87,321,425.84Zm-.48-113.66c-.4.86-.79,1.76-1.16,2.64.38-.88.78-1.77,1.18-2.64C320.52,312.16,320.52,312.18,320.52,312.18ZM320.14,424c-.11-.22-.21-.44-.31-.65.09.22.19.43.29.64.2.44.4.88.62,1.32C320.54,424.88,320.33,424.45,320.14,424Zm-1.76-106.95c-.31.75-.62,1.52-.93,2.29-.39,1-.77,2-1.14,3.09.38-1,.76-2.07,1.16-3.08.6-1.54,1.22-3,1.86-4.53C319,315.56,318.69,316.31,318.38,317.06Zm-.1,102.66c-.13-.29-.26-.6-.37-.9q-.3-.7-.57-1.44c.18.49.36,1,.56,1.44.11.31.24.61.37.9.06.13.11.26.16.38Zm-1.73-4.45c-.18-.48-.35-.95-.52-1.44a1.89,1.89,0,0,1-.06-.18c-.09-.26-.18-.51-.28-.77.09.27.18.51.26.78a1.22,1.22,0,0,1,.07.17c.18.49.33.95.51,1.44.1.28.21.57.33.85Zm-1.41-89.44c-.22.65-.43,1.31-.62,2,.2-.66.41-1.32.63-2,.15-.48.3-.95.47-1.43C315.45,324.89,315.29,325.35,315.14,325.83Zm-.08,85.11c-.13-.4-.27-.8-.4-1.21l.39,1.21a.33.33,0,0,0,0,.13A.31.31,0,0,1,315.06,410.94Zm-.77-2.43-.37-1.18.36,1.19c.12.4.25.8.38,1.2C314.53,409.32,314.41,408.92,314.29,408.51Zm-.71-2.38c0-.13-.07-.25-.11-.37,0,.13.07.26.1.38.11.39.23.78.35,1.18C313.81,406.92,313.69,406.52,313.58,406.13Zm-.41-1.45c-.09-.32-.18-.65-.26-1,.07.32.15.64.24,1s.14.48.22.73C313.3,405.16,313.24,404.92,313.17,404.68ZM312,336.88c0,.11,0,.21-.07.32,0-.11.05-.22.08-.32.22-.94.45-1.88.68-2.81C312.48,335,312.25,335.94,312,336.88Zm-.18,62.51c-.2-.89-.4-1.79-.59-2.69.17.9.37,1.78.57,2.69a.56.56,0,0,1,0,.15l0,0C311.88,399.51,311.86,399.45,311.85,399.39ZM310.73,394c.17.93.35,1.81.53,2.72C311.07,395.8,310.89,394.89,310.73,394Zm.48-53.48v0c-.11.51-.2,1-.31,1.55-.19,1-.39,2.12-.57,3.17s-.33,2.14-.51,3.22l-.33,2.45c-.08.62-.14,1.24-.21,1.85.08-.62.15-1.23.23-1.84.1-.82.21-1.63.32-2.46.17-1.07.34-2.14.52-3.2s.37-2.15.57-3.2c.08-.47.18-.95.29-1.42v0s0-.07,0-.1v0c.08-.4.17-.8.25-1.19Zm-1.55,46.87v-.06a.11.11,0,0,1,0-.05v.11c.15,1.1.33,2.22.5,3.33.09.55.18,1.1.28,1.64C310.15,390.69,309.89,389,309.66,387.37Zm-.59-32.73c-.11,1.23-.22,2.49-.31,3.75,0,.29,0,.58-.05.87l.06-.86c.14-1.89.3-3.76.51-5.61Zm-.1,26.52c0-.25-.05-.49-.06-.75-.05-.51-.09-1-.12-1.57,0,.54.06,1.06.11,1.58l.06.73.09.87C309,381.73,309,381.44,309,381.16Zm-.41-6.22c0-.78-.06-1.55-.09-2.33l0-.83c0,.28,0,.56,0,.83,0,.77.06,1.55.08,2.34s.07,1.28.11,1.92c0,.33.05.65.07,1C308.65,376.89,308.6,375.91,308.56,374.94Zm-.06-11.51c-.07,1.69-.11,3.4-.11,5.1,0,.8,0,1.61,0,2.41,0-.8,0-1.61,0-2.4C308.41,366.82,308.44,365.12,308.5,363.43Zm51.32-42.6c-.23.46-.46.9-.65,1.36.2-.46.43-.9.66-1.35h0c.08-.17.16-.33.25-.49s.21-.43.33-.64C360.21,320.06,360,320.44,359.82,320.83Zm1.28-2.43c-.19.35-.37.7-.56,1.07.19-.36.38-.72.58-1.08h0l.69-1.24C361.56,317.56,361.33,318,361.1,318.4Zm2.32-4-.38.64c.14-.24.29-.47.44-.7l.41-.67Z"/><path class="cls-1" d="M489.45,363c-.08-1.82-.18-3.64-.32-5.44-.05-.72-.11-1.43-.18-2.15-.13-1.43-.28-2.85-.46-4.27-.16-1.13-.31-2.25-.47-3.38-.07-.48-.15-1-.22-1.45-.11-.63-.21-1.26-.32-1.89-.19-1.11-.4-2.22-.62-3.32-.17-.82-.34-1.63-.52-2.45s-.33-1.46-.51-2.19l-.06-.26c-.09-.37-.18-.74-.28-1.11s-.17-.66-.25-1q-.64-2.55-1.4-5.05-.16-.58-.36-1.17c-.12-.39-.25-.78-.37-1.16s-.16-.52-.25-.78c-.16-.52-.33-1-.51-1.54s-.28-.82-.43-1.23-.25-.71-.38-1.06l-.75-2-.18-.46c-.26-.67-.53-1.34-.81-2-.6-1.48-1.24-2.92-1.87-4.38h0c-.43-1-.87-1.91-1.33-2.85-.22-.45-.44-.9-.67-1.34l-.23-.46c-.16-.33-.33-.66-.5-1l-.29-.54c-.32-.63-.66-1.26-1-1.88-.19-.35-.38-.69-.58-1l-.18-.33c-.19-.34-.39-.68-.59-1s-.35-.62-.54-.93c-.46-.79-.93-1.56-1.41-2.34s-1.09-1.71-1.65-2.56q-2.52-3.81-5.3-7.33c-1.84-2.34-3.77-4.59-5.77-6.72h0l-.35-.37c-.55-.58-1.1-1.15-1.67-1.71v0c-1.36-1.37-2.75-2.69-4.19-4h0v0c1-24.09,1.31-45.45,1.07-64.43,0-1.49,0-3-.07-4.42v-.08q-.06-2.68-.12-5.31a1,1,0,0,1,0-.24v0c0-.16,0-.33,0-.49,0-.53,0-1.06-.05-1.58,0-.16,0-.32,0-.48,0-.85-.05-1.69-.08-2.52l0-.87-.06-1.86c0-.75-.05-1.49-.08-2.23l-.09-2.21c-.1-2.23-.2-4.43-.32-6.59-.05-1.06-.11-2.1-.17-3.14l-.12-2c0-.37,0-.74-.07-1.12l-.15-2.35-.18-2.59c-.1-1.32-.2-2.63-.3-3.92,0-.17,0-.36,0-.53s0-.47-.05-.7c0-.06,0-.11,0-.16-.11-1.31-.22-2.61-.33-3.88-.06-.64-.12-1.28-.17-1.91l-.18-1.88q-.33-3.18-.66-6.22c-.11-1-.22-2-.35-3,0-.33-.07-.66-.11-1s-.05-.46-.08-.68c0-.43-.11-.86-.17-1.29h0q-1.26-9.82-2.85-18.28-.18-1-.36-1.92l-.45-2.23c-.34-1.64-.68-3.25-1-4.81-.19-.83-.38-1.66-.57-2.47q-.87-3.67-1.8-7.06c-.65-2.37-1.33-4.64-2-6.82l0,0v0c-.35-1.11-.71-2.2-1.06-3.25l-.06-.17c-.4-1.13-.77-2.23-1.17-3.29l-.6-1.58c-.2-.53-.4-1-.61-1.55-.13-.34-.27-.68-.41-1l-.33-.79c-.16-.4-.33-.79-.5-1.18-.33-.77-.68-1.54-1-2.27h0c-.27-.57-.53-1.11-.77-1.64s-.53-1.1-.79-1.62l-.4-.79-.4-.77c-.14-.26-.27-.52-.4-.78s-.26-.5-.4-.74-.27-.5-.4-.75l-.41-.73L429,79.08l-.82-1.38q-.42-.69-.84-1.35l-.57-.88c-.38-.58-.76-1.15-1.14-1.7l-.57-.84c-.38-.54-.77-1.07-1.16-1.6l-.59-.79-.58-.76C415.2,60.19,407,54.12,399,48.5c-25.89-17-58.27-31.28-89.65-37.61a9.17,9.17,0,0,0-1.28-.08c-5,0-9.64,4.58-9.55,9a10.5,10.5,0,0,0,.07,1.23,1.27,1.27,0,0,0,1.05,1.17,18,18,0,0,1,2.69.57h0l0,0,.08,0a20.75,20.75,0,0,1,2.36.88c.6.26,1.21.55,1.83.88.21.1.41.21.62.33.49.26,1,.54,1.47.85s.75.46,1.12.71c1.13.73,2.28,1.56,3.45,2.47.52.41,1.05.83,1.57,1.27,15.56,13,34.17,40.57,48.19,76.75q1.43,3.66,2.79,7.46h0c.9,2.53,1.79,5.09,2.64,7.69,12.95,39.33,20,86.79,12.92,135.86l-1.94.5-1.94.56-.95.29-.95.33c-.5.16-1,.31-1.43.49l-.7.24-.7.26-.22.09-1.05.4c-.63.24-1.25.51-1.86.75l-.16.07,0,0-.5.22-.48.22q-.54.22-1.08.48l-1.08.51c-1.21.58-2.41,1.2-3.59,1.84l-.59.32-1,.54h0l-1.53.9-.47.28-.82.51-.65.41-.32.2-.16.1-.16.11-1,.66-1,.68c-.45.3-.9.61-1.34.93s-.88.64-1.31,1l-.55.41-.55.42c-.73.57-1.46,1.14-2.17,1.73l-1.07.9-.56.47-.54.48-.58.5q-.87.75-1.71,1.53h0c-1.59,1.49-3.14,3-4.64,4.64-.5.53-1,1.07-1.48,1.62-.29.32-.57.65-.87,1h0l-.85,1-.59.7c-.37.44-.73.89-1.09,1.33s-.6.73-.9,1.11c-.15.18-.29.37-.44.56s-.14.19-.22.28l-.22.29-.8,1.06-.8,1.08h0l-1.23,1.71,0,.06h0l-1.22,1.8h0l-1.2,1.84c-.51.8-1,1.61-1.5,2.42-.31.52-.62,1-.94,1.56h0c-.31.52-.61,1.05-.91,1.58-.19.34-.38.68-.56,1a2.53,2.53,0,0,0-.12.23l-.43.77c-.25.48-.51,1-.75,1.44l-.54,1c-.18.34-.36.7-.53,1.05-.42.87-.85,1.75-1.26,2.63l0,0c-.4.87-.8,1.76-1.18,2.64h0c-.64,1.49-1.26,3-1.86,4.53-.4,1-.78,2-1.16,3.08-.24.65-.47,1.29-.69,2-.17.48-.32,1-.47,1.43-.22.65-.43,1.31-.63,2a.16.16,0,0,0,0,.09c-.32,1-.63,2-.92,3.07s-.58,2.06-.85,3.11-.46,1.87-.68,2.81c0,.1-.05.21-.08.32l-.22.95c-.09.39-.17.77-.26,1.16s-.17.79-.25,1.19v0s0,.07,0,.1v0c-.11.47-.21.95-.29,1.42-.2,1.05-.4,2.12-.57,3.2s-.35,2.13-.52,3.2c-.11.83-.22,1.64-.32,2.46-.08.61-.15,1.22-.23,1.84h0c-.21,1.85-.37,3.72-.51,5.61l-.06.86c0,.81-.09,1.61-.13,2.4a.28.28,0,0,0,0,.09c0,.56-.05,1.12-.07,1.68-.06,1.69-.09,3.39-.09,5.11,0,.79,0,1.6,0,2.4,0,.28,0,.56,0,.84l0,.83c0,.78,0,1.55.09,2.33,0,1,.09,1.95.16,2.91,0,.33,0,.65.07,1v0c0,.53.07,1.06.12,1.57,0,.26,0,.5.06.75s0,.57.08.86.06.58.09.87c.05.55.11,1.12.18,1.67l.15,1.33c0,.42.11.83.17,1.24a.22.22,0,0,0,0,.08v.05a.11.11,0,0,0,0,.05v.06c.23,1.67.49,3.32.77,5l.3,1.64c.17.93.35,1.81.53,2.72s.39,1.8.59,2.69c0,.06,0,.12,0,.18s0,0,0,0v0s0,.05,0,.08l.24,1.05.27,1c0,.2.1.39.14.59,0,0,0,0,0,.06l.33,1.27c.08.32.17.65.26,1s.13.48.2.73a3.57,3.57,0,0,1,.1.35c0,.12.07.24.11.37.11.39.23.79.34,1.19h0l.37,1.18c.12.41.24.81.37,1.21h0c.13.41.27.81.4,1.21a.31.31,0,0,0,0,.13h0l.36,1.09c.05.16.11.33.17.49l.07.22c.1.26.19.51.28.77a1.89,1.89,0,0,0,.06.18c.17.49.34,1,.52,1.44l.31.85h0a1.54,1.54,0,0,0,.08.19l.39,1.06q.27.74.57,1.44c.11.3.24.61.37.9l.15.38.16.37c.1.25.21.5.32.75.2.49.42,1,.64,1.48.09.22.18.44.28.66s.2.43.31.65c.19.44.4.87.6,1.31,0,0,0,0,0,.05h0a2.56,2.56,0,0,0,.23.47s0,.06,0,.07h0c.41.87.83,1.72,1.27,2.58s1,1.85,1.44,2.78a0,0,0,0,1,0,0,1.39,1.39,0,0,1,.06.13l.07.11c.47.85.95,1.7,1.42,2.53s1.06,1.79,1.59,2.67l0,0h0a2.59,2.59,0,0,0,.19.31c.11.17.21.34.31.51l.31.49.64,1c.23.38.48.76.74,1.14s.66,1,1,1.49l.17.24q.83,1.2,1.68,2.37l1.15,1.55c.45.6.92,1.2,1.39,1.79l.2.25c.46.57.92,1.13,1.39,1.69l.56.69.6.68c.4.48.81.94,1.22,1.4s.83.92,1.26,1.37l.62.66.21.22.11.13.71.73c.57.58,1.13,1.15,1.7,1.71l.57.55.57.54c.78.73,1.56,1.44,2.36,2.14l.69.62,1.08.94,1.83,1.49.92.72,1,.71.92.7c.31.23.63.47,1,.69.62.45,1.26.89,1.9,1.32h0c.64.43,1.28.86,1.93,1.27s1.31.82,2,1.22q2,1.18,4,2.26c.68.36,1.36.7,2,1s1.37.66,2.07,1l2.09.92c.45.19.89.37,1.34.54.62.24,1.23.48,1.85.7l1.07.39,1.34.47c.9.3,1.81.59,2.72.85q2.57.75,5.19,1.31l1.76.35,1.11.2c.63.11,1.26.22,1.89.31l1.52.22c.76.1,1.52.18,2.29.25l2.31.18c1.54.09,3.09.14,4.66.14.47,0,1,0,1.44,0l1,0,1.47-.06c.43,0,.85-.05,1.28-.09l.35,0,.69-.05.35,0,.29,0,.34,0h.06l.69-.09.4,0,.54-.06.54-.07.4,0,1.45-.2h.13l.32-.06q.72-.11,1.41-.24h0l.14,0c.56-.11,1.13-.21,1.69-.33l.86-.18.85-.19c.65-.16,1.3-.31,1.94-.48,1.06-.28,2.13-.58,3.18-.91l.41-.13,1.77-.58,1.76-.62,1.32-.5.43-.18.71-.28,1-.42h0c1.1-.47,2.23-1,3.31-1.5l.2-.1,1.42-.7,1.64-.86,1.31-.72,1-.6.06,0a.51.51,0,0,0,.16-.09h0c.49-.27.95-.55,1.43-.86l.34-.2c.46-.28.92-.57,1.37-.87l.57-.37.84-.56c.54-.36,1.09-.74,1.63-1.12l1.23-.88,1.21-.92.81-.62c.29-.21.57-.43.85-.66.55-.44,1.1-.88,1.65-1.34l1.26-1.06L451.9,460q1.89-1.71,3.73-3.53l1.33-1.35c.43-.45.86-.9,1.28-1.36s.91-1,1.35-1.49.84-.94,1.26-1.42.84-1,1.25-1.48c.83-1,1.64-2,2.43-3.05s1.58-2.1,2.34-3.17L467,443l1-1.43.35-.52c.54-.79,1.06-1.59,1.57-2.4l.17-.27a.4.4,0,0,0,.1-.15l.84-1.34c.08-.12.15-.24.22-.36.17-.28.33-.57.5-.86l.39-.63c.05-.08.1-.16.14-.24l.24-.4c.09-.17.19-.34.29-.51l.06-.11.93-1.66c.24-.43.47-.87.7-1.3q1.28-2.36,2.42-4.8c.26-.54.51-1.09.76-1.64l.75-1.66c.24-.55.48-1.11.73-1.67.46-1.09.91-2.19,1.35-3.31.22-.55.43-1.11.64-1.68s.41-1.12.61-1.69l0-.07s0-.05,0-.07l0-.06.63-1.83c0-.17.11-.33.16-.49.13-.39.26-.78.38-1.17.37-1.19.75-2.38,1.1-3.57.24-.81.47-1.61.68-2.42.11-.38.21-.76.31-1.15l.33-1.28q.31-1.21.6-2.46h0c.64-2.82,1.21-5.71,1.7-8.62.17-1.11.35-2.21.5-3.33.09-.62.16-1.24.25-1.86.13-1,.24-2.07.35-3.11a.17.17,0,0,1,0-.07l.12-1.34.06-.72c0-.23,0-.46.05-.69.08-.94.15-1.88.21-2.83s.1-1.9.15-2.86c0-.64,0-1.28.06-1.92,0-.32,0-.64,0-.95,0-.48,0-1,0-1.44,0-.24,0-.48,0-.72v-.73C489.55,366.7,489.51,364.87,489.45,363Zm-57.94,87.74-.28.11L431,451l-.89.37-.43.16-.41.15c-.4.16-.8.31-1.2.44h0c-.27.1-.53.2-.81.29l-.82.28-.83.25-.83.24-.84.23-.85.23c-.53.13-1.09.26-1.61.4a.34.34,0,0,0-.14,0c-.54.11-1.08.23-1.63.33s-1.31.24-2,.33c-.5.09-1,.16-1.49.22l-.73.08-.74.08-.26,0-.11,0-.19,0-.2,0c-.4,0-.79,0-1.19.09-.64,0-1.26.07-1.9.09h-1.72a56.58,56.58,0,0,1-21-4.06h0c-24.51-9.72-43.06-36.06-47.11-68.37a105.48,105.48,0,0,1-.84-13.32c0-.75,0-1.47,0-2.22s0-1.48.07-2.21.06-1.39.11-2.1c0-.5.06-1,.11-1.52s.09-1.06.13-1.59.11-1.14.18-1.69.11-1.17.17-1.72.16-1.17.25-1.72c.26-2,.61-4,1-6,.07-.42.15-.86.26-1.28.16-.84.36-1.68.56-2.49l.39-1.61c.16-.58.31-1.17.49-1.75s.31-1.17.48-1.74c.33-1.17.71-2.31,1.08-3.44.2-.57.4-1.12.6-1.68,0,0,0-.08,0-.13l0-.06a.56.56,0,0,1,0-.12.09.09,0,0,1,0-.05c0-.07.06-.15.09-.23a.05.05,0,0,1,0,0,0,0,0,0,1,0,0v0a.23.23,0,0,1,0-.15v0a3.61,3.61,0,0,0,.17-.46c.31-.81.62-1.61.95-2.42.13-.36.29-.71.44-1.06l.24-.56a.37.37,0,0,1,.05-.11c.11-.27.22-.53.34-.8,0,0,0,0,0-.06s.11-.26.17-.38.08-.19.13-.28.12-.28.19-.41c.58-1.31,1.2-2.61,1.86-3.87.24-.48.51-1,.75-1.45l.93-1.68h0a.75.75,0,0,1,.07-.12l.07-.12h0l0,0A1.6,1.6,0,0,1,353,320a0,0,0,0,1,0,0c1-1.79,2.07-3.5,3.17-5.15.31-.47.63-.93.95-1.39s.64-.91,1-1.35h0a.21.21,0,0,1,.08-.12c.19-.25.37-.5.57-.74l.56-.75c.38-.5.77-1,1.16-1.49.19-.24.38-.47.59-.71s.38-.48.58-.72c.39-.47.8-.94,1.22-1.4s.83-.93,1.25-1.38.81-.87,1.25-1.31h0c.43-.43.85-.87,1.28-1.28s.89-.86,1.33-1.27.88-.82,1.33-1.2l1.37-1.19c.44-.38.91-.75,1.37-1.13l.73-.57h0c.23-.19.47-.38.71-.55.47-.36.93-.71,1.42-1s1.19-.84,1.79-1.24c1.21-.81,2.45-1.57,3.7-2.29.62-.36,1.24-.7,1.87-1h0l.25-.14c.46-.24.92-.48,1.39-.7s.7-.33,1.08-.51.48-.22.73-.35c.47-.21.94-.42,1.42-.61l1.42-.57.36-.14.43-.16,1-.35c.28-.11.57-.21.86-.3l.51-.18.6-.18.59-.18c.47-.16,1-.29,1.44-.42l1.32-.33.09,0s0,0,.05,0h0a56.14,56.14,0,0,1,13.38-1.61c38.08,0,68.94,38.39,68.94,85.75C478.16,407.26,458.65,439.25,431.51,450.78Z"/><path class="cls-1" d="M311.26,396.7c-.18-.91-.36-1.79-.53-2.72C310.89,394.89,311.07,395.8,311.26,396.7Z"/><path class="cls-1" d="M312.57,402.38l-.15-.58c-.09-.34-.17-.69-.26-1l.27,1C312.47,402,312.53,402.18,312.57,402.38Z"/><path class="cls-1" d="M317.34,417.38c-.16-.41-.32-.83-.47-1.25a1.54,1.54,0,0,0,.08.19Z"/><rect class="cls-1" x="319.34" y="314.82" width="0.01" height="0.01"/><path class="cls-1" d="M347.55,275.8l-.54.48-.58.5.57-.51C347.18,276.11,347.36,276,347.55,275.8Z"/><path class="cls-1" d="M349.18,274.43l-1.07.9-.56.47.55-.48Z"/><path class="cls-1" d="M353.76,270.9c-.44.32-.88.64-1.31,1l-.55.41.55-.42C352.89,271.53,353.32,271.21,353.76,270.9Z"/><path class="cls-1" d="M369,262.21l-.48.22q-.54.22-1.08.48l1.08-.49Z"/><path class="cls-1" d="M376.58,259.34l-.95.33c-.5.16-1,.31-1.43.49l-.7.24.7-.25c.46-.17.94-.34,1.42-.49Z"/><path class="cls-1" d="M379.47,258.49l-1.94.56-.95.29,1-.3Z"/><path class="cls-1" d="M340.66,454.74c-.1-.11-.22-.23-.32-.35l.21.22Z"/><path class="cls-1" d="M347.26,461l-.7-.61c-.79-.7-1.58-1.42-2.35-2.15.78.73,1.56,1.44,2.36,2.14Z"/><path class="cls-1" d="M353,465.59l-.93-.69-.94-.72,1,.71Z"/><path class="cls-1" d="M375.54,477.4l-1.34-.46-1.07-.4,1.07.39Z"/><path class="cls-1" d="M386.32,480.11c-.38-.05-.75-.12-1.12-.19-.58-.11-1.17-.23-1.75-.36l1.76.35Z"/><path class="cls-1" d="M404.57,481l-.36,0c-.42,0-.84.07-1.27.08.43,0,.85-.05,1.28-.09Z"/><path class="cls-1" d="M405.9,480.88l-.3,0-.34,0,.35,0Z"/><path class="cls-1" d="M408.87,480.54l-.41.06-.53.06.54-.07Z"/><path class="cls-1" d="M427.25,475.61l-.71.29-.43.17.43-.18Z"/><path class="cls-1" d="M346.24,334.66l-.06.19,0-.13Z"/><path class="cls-1" d="M346.38,334.26s0,.08,0,.13a.49.49,0,0,0,0,.11l0,0a.09.09,0,0,1,0-.05C346.31,334.42,346.35,334.34,346.38,334.26Z"/><path class="cls-1" d="M478.16,369.6c0,37.66-19.51,69.65-46.65,81.18l-.07,0,.06,0c-1.62.4-3.26.72-4.92,1h0a57,57,0,0,1-8.41.62c-1.4,0-2.8-.05-4.18-.15s-2.75-.26-4.11-.46a57.13,57.13,0,0,1-9.32-2.2c-.86-.29-1.72-.59-2.57-.91l-1.26-.5h0c-.87-.35-1.72-.72-2.57-1.12s-1.4-.66-2.09-1q-2.08-1-4.1-2.28c-.81-.49-1.6-1-2.39-1.52q-1.77-1.19-3.48-2.49c-1-.74-1.91-1.5-2.84-2.3A81.06,81.06,0,0,1,359.59,412c-.47-.94-.93-1.89-1.37-2.85q-1.32-2.89-2.48-5.92c-.76-2-1.47-4.07-2.11-6.17q-1.35-4.44-2.31-9.08c-.5-2.48-.93-5-1.26-7.56-.16-1.28-.31-2.57-.43-3.87s-.21-2.6-.29-3.91c0-.49,0-1-.07-1.48-.06-1.49-.09-3-.09-4.49,0-.52,0-1,0-1.55v0c0-.52,0-1,0-1.56s0-1.17.06-1.75c0-1,.1-1.95.17-2.91l.12-1.54.15-1.53.18-1.68c.23-1.94.51-3.87.85-5.77.17-1,.37-2,.57-3,.14-.68.29-1.35.44-2,.1-.44.2-.88.31-1.32.06-.25.13-.51.2-.76l.18-.74c.12-.5.26-1,.39-1.5.18-.68.38-1.35.58-2,.06-.19.11-.39.17-.58.2-.67.41-1.33.64-2,.12-.4.26-.8.4-1.19a.37.37,0,0,1,.05-.17c.1-.31.21-.63.33-.94a.25.25,0,0,1,0-.11l.3-.85c.21-.57.43-1.14.65-1.7l.33-.84c.12-.32.25-.63.38-.94s.26-.64.4-.95c.2-.48.41-1,.63-1.42.08-.2.17-.4.26-.6s.22-.45.32-.68v0c.25-.53.49-1.06.75-1.59a.35.35,0,0,1,.08-.16c.2-.46.43-.9.66-1.35h0c.08-.17.16-.33.25-.49s.21-.43.33-.64l.12-.23c.19-.36.38-.72.58-1.08h0l.69-1.24a.3.3,0,0,1,.06-.11l.21-.37.07-.12a2,2,0,0,1,.11-.2l.09-.15s.05-.09.09-.14a.41.41,0,0,1,.05-.09l0-.06c.15-.26.31-.52.47-.78l0-.05h0c.14-.24.29-.47.44-.7l.41-.67.09-.15h0c.49-.79,1-1.57,1.53-2.33l.71-1,.07-.1.82-1.14.51-.69c.25-.34.5-.67.76-1s.26-.35.4-.52c.33-.43.67-.85,1-1.27l.63-.76.08-.1q.53-.63,1.08-1.26c.33-.38.67-.76,1-1.13l.49-.53h0l0-.05q.73-.78,1.47-1.53c.38-.38.76-.76,1.15-1.13.18-.19.37-.36.56-.54h0l.15-.15.08-.08a.6.6,0,0,0,.08-.08l.53-.48.62-.57c.5-.45,1-.89,1.53-1.33l.29-.24c.5-.42,1-.83,1.51-1.23.33-.27.67-.53,1-.79l.32-.24.85-.63.06,0c.4-.3.81-.59,1.22-.87l1.33-.91h0c.9-.59,1.81-1.15,2.72-1.69a60,60,0,0,1,7.12-3.58l0,0v0a56.14,56.14,0,0,1,13.38-1.61C447.3,283.85,478.16,322.24,478.16,369.6Z"/><path class="cls-1" d="M352.46,340.44l-.18.74c-.07.25-.14.51-.2.76C352.2,341.44,352.32,340.94,352.46,340.44Z"/><path class="cls-1" d="M358,324.64c-.09.2-.18.4-.26.6-.22.47-.43.94-.63,1.42C357.4,326,357.7,325.31,358,324.64Z"/><path class="cls-1" d="M360.09,320.34c-.09.16-.17.32-.25.49h0Z"/><path class="cls-1" d="M361.12,318.39c.23-.42.46-.83.7-1.24l-.69,1.24Z"/><path class="cls-1" d="M363.42,314.43l.47-.73-.41.67c-.15.23-.3.46-.44.7Z"/><path class="cls-1" d="M376.67,298.1l1.15-1.05c-.41.38-.83.75-1.23,1.13Z"/><path class="cls-1" d="M380.73,294.58l.42-.33c-.51.4-1,.81-1.51,1.23Z"/><path class="cls-1" d="M382.16,293.46c-.34.26-.68.52-1,.79l.14-.12Z"/><path class="cls-1" d="M414,452.23c-1.38-.1-2.75-.25-4.11-.46C411.2,452,412.57,452.12,414,452.23Z"/><path class="cls-1" d="M426.54,451.76a55.79,55.79,0,0,1-8.41.63c-1.4,0-2.8-.05-4.18-.16,1.38.1,2.78.15,4.18.15A57,57,0,0,0,426.54,451.76Z"/><path class="cls-1" d="M431.5,450.77l-.06,0c-1.6.39-3.22.71-4.86.95C428.24,451.49,429.88,451.17,431.5,450.77Z"/><path class="cls-2" d="M352.78,320.33l-.06.12h0A.75.75,0,0,1,352.78,320.33Z"/><path class="cls-2" d="M395.84,285.46v0h0Z"/><path class="cls-1" d="M370.1,802h0v0c0,9.88.11,17.55.24,23.11v3a11.4,11.4,0,0,0,.24,2.71v1l-.24,4.19v5.43c-.33,4.61-.49,8-.49,10.12a33.13,33.13,0,0,1-4.69,15.53l-1.72,2c-.18,0-.25-.07-.25-.24a10.35,10.35,0,0,1,1-1.72c3-4.94,4.52-9.53,4.7-13.81l.24-7.41c.31-6.57.49-11.58.49-15q.27-9.57.26-28.61l-3.45,2.42h0v29.88h-.26v-29.7l-5.65,4v.06l-.26,14.8v4h-.49l-.24-3.46c-.27-6.09-.38-10.92-.31-14.45l-.15.11-.05,1.77V825.9c0,2.8-.15,7-.48,12.57,0,2.47-.16,6.33-.51,11.58a29.28,29.28,0,0,1-.49,4.21l-.48,1a.22.22,0,0,0-.24-.24v-5.67q.72-12.87.72-38.42l-2.24,1.58h0q0,7.11,0,15.85a10.09,10.09,0,0,1-.75,3.7,15,15,0,0,0-.49,4.44l-.48,5.18h-.27v-1.48l.75-12.08-.24-5.43v-9.17l-1,.7q0,14.73-.73,29.44l.13-29-1.34.94h0l.25,12.76c-.33,6.26-.51,10.85-.51,13.83a43,43,0,0,1-.73,9.37,9.93,9.93,0,0,1-1.23,3.44,8.63,8.63,0,0,1-1.24,2l-.75.75h-.48a3.13,3.13,0,0,0-1.72.49c-.49.33-.93.57-1.24.75a3.92,3.92,0,0,1-1.74.48,13.74,13.74,0,0,1-3.2-.48c-.66-.18-1.32-.38-2-.62a17.72,17.72,0,0,0-2.23-.62q-2.71-.75-5.42-4.43a5.72,5.72,0,0,1-1.24-2.71,3.76,3.76,0,0,1-.48-1.5,62.41,62.41,0,0,1-.49-6.64c-.18-1.66-.26-4.1-.26-7.41.11-.82.19-1.55.26-2.21l-2.22,1.56h0v3.84a42.44,42.44,0,0,0,1.48,11.84,3.55,3.55,0,0,0,.24,1.37c.18.39.33.77.51,1.1l.49,2.47a6.51,6.51,0,0,1,2.95,3c-1.15-.16-2.14-1.15-2.95-3-1.33-2.8-2.06-4.37-2.23-4.7a22.55,22.55,0,0,1-1.24-7.14v-3c0-2.14.05-4,.11-5.38l-1.29.92h0c0,.81,0,1.71,0,2.72a42.1,42.1,0,0,0,1,9.62,3.87,3.87,0,0,1-.51-1.48,35.5,35.5,0,0,1-.86-9c0-.59.05-1.12.07-1.63l-4.74,3.33,0,0v0a40.85,40.85,0,0,0,.15,4.79c.31,4.61,1.06,7.89,2.21,9.86l.5,1,1.22,4.43a2.46,2.46,0,0,1-1-1.72,10,10,0,0,0-.49-1.72l-.75-2a18.21,18.21,0,0,1-1.35-5,32.29,32.29,0,0,0-.61-3.58,50.88,50.88,0,0,1-.51-5.62l-10.87,7.65v0h0v0a11.84,11.84,0,0,0,.52,2.36c.34,1.32.75,2.86,1.24,4.69s1.08,3.86,1.74,6.16a29.55,29.55,0,0,0,6.4,10.12,16.3,16.3,0,0,0,2.36,1.59,19.82,19.82,0,0,1,2.34,1.61,40.76,40.76,0,0,0,12.32,6.42c.82.15,1.81.33,3,.48a20.86,20.86,0,0,0,2.71.24h3.95v.25H339v.26h3v.49l-6.16-.75-5.93-1-2.47-1.24a1,1,0,0,1-.73.24,10.58,10.58,0,0,1-2.22-1.23l-3.22-2.23a33.31,33.31,0,0,1-3.31-2.34,29.62,29.62,0,0,1-3.33-2.82,21.51,21.51,0,0,1-4.19-5.69,36.9,36.9,0,0,1-4.94-14.8c-.14-.9-.25-1.73-.31-2.48h0l-2,1.38h0c.14,1.12.31,2.26.58,3.45.48,2.38.81,3.91,1,4.55a45.48,45.48,0,0,0,7.16,14.07,13.43,13.43,0,0,0,3.82,3.44,21.68,21.68,0,0,1,2.84,2q10.59,8.37,22.68,7.63a7.89,7.89,0,0,0,2.22-.35c.82-.26,1.57-.46,2.23-.62a51.19,51.19,0,0,0,5.91-1.23,29.39,29.39,0,0,0,3.95-1l7.15-3.94a30.42,30.42,0,0,0,12.81-21.7l1.23-20V822.44l.25-25.26Zm-51.7,57.06a20.09,20.09,0,0,0,1.11,2.84,4.39,4.39,0,0,1-1.84-2.58,22.66,22.66,0,0,0-1.12-2.84A4.49,4.49,0,0,1,318.4,859.05Zm.86,9c-.66,0-1.23-.66-1.72-2a4.31,4.31,0,0,1,1,.75,4.79,4.79,0,0,0,1.48,1Zm14.05-8.14a3.32,3.32,0,0,1,1.74.62,2.69,2.69,0,0,1,1.24,1.34,30,30,0,0,0-3.71-1.72Zm6.9,4.92c0,.17-.06.24-.24.24a22.05,22.05,0,0,1-8.86-3.2Zm-9.37-1.48,3.46,1.24v.24c-.48-.16-1.63-.58-3.46-1.24ZM324.93,858l2.23,2.71h-.24l-2.23-2.47A.22.22,0,0,1,324.93,858Zm8.38,19.23a48.33,48.33,0,0,0-5.16-1.72v-.25l5.16,1.48Zm-12.81-11.6q1.71,1.24,4.7,3.59a16.15,16.15,0,0,0,5.64,3.09,46.72,46.72,0,0,0,12.35,2.2Q328.37,875,320.5,865.58Zm25.16-.25h-1.72l-.26-.24.5-.48,1.48.24Zm15.29,6.6-.75.81v-.24l.75-.57,2-2.14.24.48Zm10.12-52.21h-.27v-7.16h.27Z"/><path class="cls-1" d="M436,874.22a6.87,6.87,0,0,1-.13-1.23l.24-.25,1,.49-1.23-5.43v-1a8.17,8.17,0,0,0,.24-2.22,13.94,13.94,0,0,0-.24-3l.24-.48a3.29,3.29,0,0,1,.24-.89c.18-.39.18-.68,0-.86a2.5,2.5,0,0,0-2.2-1,2.46,2.46,0,0,0-.86.27c-.42.15-.71.15-.86,0a20.38,20.38,0,0,0-3.46-.51l-4.44.24H423.1v-.73l-.27-3.44.27-3.46-.27-5.18V831.06q0-12.79-.24-19v-4.43a31.17,31.17,0,0,1-.11-4.81,33.92,33.92,0,0,0-.13-4.81V787.9c-.18-3.59-.25-9-.25-16.25L422,765.4l-2.45,1.74h0q.34,40.29.34,62.42h-.25l-.57-62.08L414,771.09v15.09h-.25V771.25l-4.85,3.44L409,832.8q-.75-20.7-.92-57.58l-2.27,1.61v18.72h-.25V777l-1.69,1.17h0l0,0v0q.11,18.22.49,47.92c-.18-.48-.38-5.27-.62-14.31s-.37-18-.37-26.89c0-2.38,0-4.52,0-6.39l-4.67,3.3h0c.05,2.45.09,4.38.22,5.79v13.08l-.24,7.41c0,3.77.07,6.63.24,8.62l-.24,4.68v4.69l-.24,7.39c0,5.27.06,9.22.24,11.84l-.24,6.91.24,7.89-.24,4.92.24,8.14.49,8.14c0,1.32.57,1.89,1.72,1.72a.46.46,0,0,1,.37.26.42.42,0,0,0,.38.24l1.23-.5a3,3,0,0,1,.49.75c.17.33.48.42,1,.24a22.26,22.26,0,0,1,5.67-1,40.5,40.5,0,0,1,5.42.5h1.48a28.51,28.51,0,0,0,6.66-.75,19.53,19.53,0,0,0,3.71-.24l1.47-.24a14.36,14.36,0,0,1,3.09.37,13.43,13.43,0,0,0,3.07.36c.84,0,1.32-.07,1.47-.25s.25-.63.25-1.47a1,1,0,0,1-.25-1.11,2.36,2.36,0,0,0,.25-.86,4.89,4.89,0,0,1,.37-1.47,2,2,0,0,0-.37-2A6.22,6.22,0,0,1,436,874.22Zm-30.46-76.68h.25q.5,18.23.48,27.13h-.24Zm1,58.93-.27.24V840.94q0,.24.27.24Zm0-19h-.27v-10.1h.27Zm1.23-26.14h-.26V781.75h.26Zm1.46,45.37h-.49V837.48h.49Zm4.45-68.81H414v29.62l-.25-.27Zm.49,37.49H414v-5.18h.24Zm5.67,31.81V842.66c0,3.29.17,8.14.48,14.54Zm6.17,6.17a8.84,8.84,0,0,1-2.71-.24l8.38-.73C431.23,863,429.34,863.37,426.05,863.37Zm8.14,1v.49l-3.46-.24v-.25Zm-5.18.25v.24l-2.72.24v-.48Zm-3.2,3.94,3.2.49-5.67.26A3.33,3.33,0,0,1,425.81,868.55Zm-3,11.6h3.46v.25l-3.46.24Zm5.67.73-5.91.75v-.51l5.91-.48Zm2.47-2.47-5.67.51-.24-.51,5.91-.24Zm3.7-11.58h-3.44v-.26h3.44Zm-11.33-4.69c0-1.15.2-1.81.62-2a7.22,7.22,0,0,1,2.82,0c-.16,0-.24.07-.24.25.33.33.57.48.75.48l5.18-.24v-.49l-3.71-.75v-.24h1.48a5.68,5.68,0,0,1,4.94,2.47ZM434.92,748.2a3.92,3.92,0,0,0-1.59.27c-.42.15-.79.33-1.13.48h3.71v-.48A1.32,1.32,0,0,0,434.92,748.2Z"/><path class="cls-1" d="M473.89,763v7.41h.24V763Zm.48,20.47h-.48c.33,3.28.48,5.84.48,7.65h.27Zm41.2-48.59-3,6.66.48.27a10,10,0,0,0,1.61-3.47,34.83,34.83,0,0,1,1.1-3.46Zm-41.2,48.59h-.48c.33,3.28.48,5.84.48,7.65h.27ZM473.89,763v7.41h.24V763Zm0,0v7.41h.24V763Zm.48,20.47h-.48c.33,3.28.48,5.84.48,7.65h.27Zm41.2-48.59-3,6.66.48.27a10,10,0,0,0,1.61-3.47,34.83,34.83,0,0,1,1.1-3.46Zm-41.2,48.59h-.48c.33,3.28.48,5.84.48,7.65h.27ZM473.89,763v7.41h.24V763Zm0,0v7.41h.24V763Zm.48,20.47h-.48c.33,3.28.48,5.84.48,7.65h.27Zm41.2-48.59-3,6.66.48.27a10,10,0,0,0,1.61-3.47,34.83,34.83,0,0,1,1.1-3.46Zm-41.2,48.59h-.48c.33,3.28.48,5.84.48,7.65h.27ZM473.89,763v7.41h.24V763Zm0,0v7.41h.24V763Zm.48,20.47h-.48c.33,3.28.48,5.84.48,7.65h.27Zm41.2-48.59-3,6.66.48.27a10,10,0,0,0,1.61-3.47,34.83,34.83,0,0,1,1.1-3.46Zm-41.2,48.59h-.48c.33,3.28.48,5.84.48,7.65h.27ZM473.89,763v7.41h.24V763Zm0,0v7.41h.24V763Zm.48,20.47h-.48c.33,3.28.48,5.84.48,7.65h.27Zm41.2-48.59-3,6.66.48.27a10,10,0,0,0,1.61-3.47,34.83,34.83,0,0,1,1.1-3.46Zm-41.2,48.59h-.48c.33,3.28.48,5.84.48,7.65h.27ZM474.13,763h-.24v7.41h.24Zm66.58,115.92-3-8.65a27.56,27.56,0,0,0-1.35-2.82,27.24,27.24,0,0,1-1.61-3.59,40.71,40.71,0,0,1-2.95-8.38c-.51-1-1.17-2.3-2-4a14.23,14.23,0,0,1-1.48-4.19l-.24-.49-3.7-7.14a19,19,0,0,1-.86-2.85c-.25-1.06-.47-1.92-.62-2.58l-6.15-15.55c-.34-.64-.75-1.43-1.24-2.34a8.94,8.94,0,0,1-1-2.33,29.72,29.72,0,0,0-2.47-6.18,44.93,44.93,0,0,1-2-5.18l-.27-.24c-.64-.64-.73-1.72-.24-3.2l.75-2,3.44-9.11a70.11,70.11,0,0,1,2.71-7.16l2-5.91c.33-.67.7-1.39,1.1-2.23a16.64,16.64,0,0,0,1.1-3,30.62,30.62,0,0,0,1.24-4,37,37,0,0,1,1.23-4.08,17.43,17.43,0,0,1,1.37-3.33,16.42,16.42,0,0,0,1.34-3.34l5.43-16,2.23-7.65,1.72-4,.75-2.22a.23.23,0,0,0-.25-.25l-3,2.23-1.24-1,.75-2-1.48,1a1.81,1.81,0,0,0,.14.61.6.6,0,0,1-.14.62,15.24,15.24,0,0,1-1.72,2.23l-.24-5.19c-.84.18-1.32.49-1.5,1a4.36,4.36,0,0,0-.24,1l-1.48-1.24a4.51,4.51,0,0,1-.24,1.72h-.24a3.65,3.65,0,0,1-.51-.61,8.23,8.23,0,0,1-.49-.86,1,1,0,0,1-1.47.48L520,726.5h-.24l.49-1v-1.24l-1,.73L518,726.74l.24.51a2.18,2.18,0,0,1-.37,1.1,3.9,3.9,0,0,1-.62.86.55.55,0,0,1-.62.14,1.91,1.91,0,0,0-.61-.14,7.19,7.19,0,0,1-1.48,1.24,4.51,4.51,0,0,1,.24,1.72l.75-1.21c.15,0,.24.06.24.24l-.24,1.23c0,.16.07.25.24.25l1.48-2.47a.22.22,0,0,0,.24.24l-.24,1.23-.48,1.72.72-.72A30.06,30.06,0,0,1,513.1,743c-.66-.16-1.15.18-1.48,1-.5,1.81-1.89,5.93-4.19,12.33l-6.66,18-.24.48h-.27l3-9.13q2.72-7.87,3.44-10.1c1.48-3.79,2.38-6.17,2.72-7.17.66-1.8,1.27-3.57,1.85-5.29s1.1-3.33,1.61-4.81a10.91,10.91,0,0,1,.73-2.09q.49-1.12,1-2.58a3.79,3.79,0,0,0,.24-1.5c-.33-.82-1-1.06-2-.73v-1.72h-.24l-1.5,3.68h-.25l.49-3.11a15.48,15.48,0,0,1-1.21,1.88h-.27q.5-2.22,2-6.64h-.25l-1.47,2.21a5.9,5.9,0,0,0-1.24,2.71,13.52,13.52,0,0,1-.51,2.71L506,738.34l-3.46,11.1-4.67,13.8-3.71,10.61c-.48,1.48-.95,2.89-1.37,4.19a36.43,36.43,0,0,1-1.34,3.71,2.25,2.25,0,0,0-.24,1.1,3.89,3.89,0,0,1-.51,1.61L487,794.56q-2.49,7.91-4,11.84a5.87,5.87,0,0,1-.75,2,5.23,5.23,0,0,0-.73,1.48,1.41,1.41,0,0,1-.26-1v-8.62a4,4,0,0,1,.5-2.23,1.42,1.42,0,0,0,.49-1l.24-12.57L482,766.71V753.87c0-2.12.15-5.49.48-10.1l.27-5.67v-1.72a6,6,0,0,0-.51-2.71,1.52,1.52,0,0,1-.24-1,8.7,8.7,0,0,1,.24-1.61,2.52,2.52,0,0,0,0-1.61,20.85,20.85,0,0,0-.49-3.93,1,1,0,0,0-.37-.62,3.41,3.41,0,0,1-.62-.88l.24,2.71h-.24l-1.26-1.87-.22-.33a.21.21,0,0,0-.24.24,2.42,2.42,0,0,1,.13.31h0c.13.29.31.68.49,1.16a4.86,4.86,0,0,1,.37,1.48v.5a5.17,5.17,0,0,1-.26,1.35,5.93,5.93,0,0,0-.24,1.61l.24,13.32-.24,6.64V767.7q0,7.14.5,20.95V801h-.26l-1-40.45v11.12l.24,13.8c.15,2,.24,4.85.24,8.63v21.7a11.29,11.29,0,0,1-1,3.7,3,3,0,0,1-.24-1.23V790.88q-.49-23.68-.49-35.27a54.15,54.15,0,0,1-.24-6.17c0-3.29.07-5.76.24-7.39V729c0-1.15.4-1.72,1.24-1.72-.09-.7-.18-1.27-.27-1.69h0a2.15,2.15,0,0,0-.35-.9,2,2,0,0,0-1.37-.36,1.43,1.43,0,0,0,.25,1l-4.68-1.48V725a5.48,5.48,0,0,0-1.72.25,8.43,8.43,0,0,0-2.23.26,4.33,4.33,0,0,0-1.37.73,4.53,4.53,0,0,1-1.34.75,1.72,1.72,0,0,1-1.24-.51c-.81-.64-1.47-.49-2,.51l-.75,1.23c-.81-1.32-1.9-1.5-3.2-.5a1.39,1.39,0,0,0,1,.5l-.48,3-.49-1h-.24a47.85,47.85,0,0,0-.26,5.91v26.4a17.71,17.71,0,0,1,.26,3.44v6.66c0,4.12.16,9.94.49,17.51l-.25,8.38.25,7.17c0,5.09-.09,9-.25,11.57,0,1.15,0,2.61.11,4.33a46.26,46.26,0,0,1-.11,5.8q0,9.09-.24,13.56l-.26,12.81-.25,5-.24,11.09V872a9.05,9.05,0,0,0,.24,2.44,6.14,6.14,0,0,1,.25,2,8.19,8.19,0,0,1-.25,2.47v.73a1.91,1.91,0,0,0,.86.24h.62c.18.51.46.75.86.75a1.32,1.32,0,0,1,.88.24.67.67,0,0,1,1-.13,1.39,1.39,0,0,0,.75.37,8,8,0,0,0,2,.51,32.66,32.66,0,0,0,4.69.24,11.77,11.77,0,0,0,2.72.25l3.68-1a8.42,8.42,0,0,0,3.22-.72c.49.48.9.24,1.24-.75.33-.82.57-1.24.72-1.24.66-.33,1-1.14,1-2.47a.44.44,0,0,0-.14-.35c-.06-.09,0-.22.14-.38a13.89,13.89,0,0,0,.86-2.22,11.84,11.84,0,0,1,.86-2.21,60.76,60.76,0,0,1,2.09-5.8c.75-1.72,1.37-3.33,1.85-4.81a29.06,29.06,0,0,0,1.48-3.94c.33-1.15.57-2.06.75-2.72.82-2.62,1.63-5,2.47-7.14.64-1.66,1.3-3.22,2-4.7s1.24-2.8,1.72-3.95l.75-2.71a1,1,0,0,1,.73,1c3.62,9.22,6.27,16.12,7.9,20.71q3,7.41,3.46,9.37l3,8.38c1.32,3.31,2.71,5.52,4.19,6.66l.75.51a.81.81,0,0,1-.27-.62.76.76,0,0,0-.24-.61h.24a15.24,15.24,0,0,1,2.23,1.72,3.75,3.75,0,0,1,1.48-.49,3.3,3.3,0,0,1,1.47.35,2.63,2.63,0,0,0,1,.38l.24-.73,1.48,1-.25-1a5.08,5.08,0,0,0,2-.26,1.13,1.13,0,0,1,1.1.13,2.15,2.15,0,0,0,.86.37h2c-.33-1-.06-1.32.75-1l3.71.75.73-.75,2.47.24v-1.47l1.72.75-.49-1.24ZM511.12,740.06l.5-2.2a9.69,9.69,0,0,1,.49-1.74.23.23,0,0,0,.24.26v.73s0,.37-.11,1.1a13.34,13.34,0,0,1-.62,2.6,3.82,3.82,0,0,1-.37,1.35c-.24.59-.47,1-.62,1.37a.22.22,0,0,1-.24-.25Zm-3.82,9.13a12.25,12.25,0,0,1,2.1-4.43,19.84,19.84,0,0,1-1.35,4.43,43.16,43.16,0,0,0-1.61,4.44C506.26,753,506.57,751.49,507.3,749.19Zm-36.37,18.24h-.24v-6.9h.24a9,9,0,0,1,.24,2.47Zm.24-23.66-.24,13.08a1,1,0,0,1-.24.72h-.27c0-6.24-.06-10.85-.24-13.8-.15-1.48-.24-3.62-.24-6.42a35.64,35.64,0,0,1,.37-6h0a3.28,3.28,0,0,1,.62-1.63l.16,1.1.08.62c-.17,2.14-.24,5.43-.24,9.86Zm4.19,83.1a39,39,0,0,1-.48-4.92l.24-4.94h.24Zm-.48-12.09v-6.9h-.24l-.27,1v13.81a57.17,57.17,0,0,1,.27,6.42v1.23h-.27l-.24-2-.24-36.74-.25-8.39c-.17-1.8-.24-4.52-.24-8.13V731l.49-1,1,.73c0,.18.07.27.24.27h.24a4.42,4.42,0,0,0-.24-1.75,6.62,6.62,0,0,1-.39-1v0a1.43,1.43,0,0,1-.09-.5c0-.82.57-1.24,1.72-1.24a.56.56,0,0,1,.42.29v0s0,0,.06.06a1.32,1.32,0,0,1,.25.62,8.75,8.75,0,0,0-.73,3.47l.24,4.19v14.79a1,1,0,0,1-.24.73,2,2,0,0,0-.51,1.48,15.63,15.63,0,0,0,.51,2.47,5.47,5.47,0,0,1,.24,2,4.24,4.24,0,0,1-.49,2.23.62.62,0,0,0,0,1,4.85,4.85,0,0,1,.49,2.47,12.8,12.8,0,0,1-.24,2.72l-.51.48-.24-.24V733.67l-.49-.27-.48,3.47a45.85,45.85,0,0,0-.51,5.66,24.07,24.07,0,0,0-.24,4v11.84l.24,1.73c.15.33.33.74.51,1.23a5.85,5.85,0,0,1,.24,1.72l-.24,13.56a21,21,0,0,1-.51,3.71,2.53,2.53,0,0,1-.11.62,1.14,1.14,0,0,0,.11.86l.24-1.24c.18.18.38,2.58.62,7.28s.37,9.48.37,14.42C475.36,809.62,475.21,813.81,474.88,814.78Zm0-59.68-.24,2.72h-.51l.24-2.72Zm-.51-7.87v-3.7h.27v3.7Zm3,69.78h-.51V793.35l-.24-5.94c-.18-2.29-.24-5.66-.24-10.1a6.63,6.63,0,0,0-.25-2,11.17,11.17,0,0,1-.5-3.57v-2.83l.5-1.23.25.24a2,2,0,0,1,.24,1.24l.24,12.32.51,21.71Zm36.48,5,.2.58-1.68-3.91-3-7.14a10.24,10.24,0,0,0-1-2.23h.27l.73,1,3.94,10.12C513.5,821,513.67,821.49,513.83,822.06Zm4.45,19.12.25,1c.15,1.3,1.05,3.28,2.71,5.91,1.63,2.95,2.47,5.42,2.47,7.39l.24,1.74a105.87,105.87,0,0,1-6.66-14.07q-1.23-3-5.42-14.29c-1.33-3.29-2.47-6.33-3.47-9.14l-.73-2.47c.67-.15.82-.57.49-1.23a1.12,1.12,0,0,0-.07-.35l2.3,5.78,3,7.41h.75a16,16,0,0,1-1-3h.24q6.42,16.27,7.9,20.47a.22.22,0,0,1-.24.24l-4.46-10.85h-.24Zm-5.93.49q8.64,22.92,8.89,24.92-4.2-11.34-7.65-19.5-7.88-20.48-10.61-28.84Q503.73,818.75,512.35,841.67Zm-10.1-45.37h-.49l1.72-5.18c0,.15.16.24.49.24a13.33,13.33,0,0,1-.86,2.72C502.69,795.07,502.4,795.8,502.25,796.3Zm2.23,18.75.48-.27a55.84,55.84,0,0,1,2.47,6.05q1.23,3.57,2,5.56,1.71,3.93,4.69,11.84l4.68,11.58,4.7,11.84H523Zm2.2-.51-.73-2.47c-.17-.33-.08-.73.25-1.23l1.54,3.9C507.52,814.48,507.17,814.43,506.68,814.54Zm3.47,4.19h.24a15.7,15.7,0,0,1,1,3l-.26.26A29,29,0,0,0,510.15,818.73Zm-.75-13.56,3,6.66h-.48l-3-6.66Zm2.47-26.38-.49-.24q6.89-19.26,10.59-28.87l.5.26Q518.77,759.54,511.87,778.79Zm14.66-43.29a20.6,20.6,0,0,1-2.09,5.07l-1.24,3.68-2,4.7-2.71,7.63L515.81,764l-7.89,22.19-1,2,.26-1.23,6.4-17.75,6.66-18.51a4.93,4.93,0,0,1,.48-1.1,4.22,4.22,0,0,1,.51-.62l1.48-4.19,1.72-4.19a14.53,14.53,0,0,0,1.23-4.19l1.48-5.18C527.48,731.68,527.28,733.12,526.53,735.5Zm-15.15,36.39c.82-3,1.24-4.46,1.24-4.46s.48-.81,1.47-2.44c.16,0,.25.06.25.24-.34,1-.71,2-1.13,3.09s-.86,2.33-1.34,3.81Zm13.81-38,.72-1.23.51.24a10.73,10.73,0,0,0-.75,1.85c-.15.57-.33,1.1-.48,1.61q-1,3.21-5.67,15.28a1.45,1.45,0,0,1-.51,1,22.44,22.44,0,0,0-2.71,7.39l-.73,1.72-.24-.73,1.48-5.94c.3-.63.64-1.25,1-1.85s.57-1,.75-1.34l1.47-4.44a2.77,2.77,0,0,1,.25-1.23l3.7-8.89Zm-4.19-.24-1,2-.24-.24.73-2Zm-17,35.51L506.2,762c.15-.64.53-1.79,1.1-3.44a21.46,21.46,0,0,1,2.1-4.44c.33-.66.7-1.47,1.1-2.47s.79-1.8,1.12-2.47c0-.15.16-.41.49-.75l-.73,2.72,4.43-11.1L519.25,729h.27v1.48l-3,8.64c-.33,1-1.72,4.77-4.19,11.34L506.68,766a45.65,45.65,0,0,0-2,5.69h-.51l3-8.89h-.26l-2.45,7.14H504Zm-2.71-8.39c0,.34-.05.91-.11,1.73a2.73,2.73,0,0,1-1.13,2ZM497.07,778s.37-1,1.1-2.95a34.08,34.08,0,0,0,1.37-4.19,1.14,1.14,0,0,0,.11-.86,2.53,2.53,0,0,1-.11-.62l.48-1,.75-.73q.74-2.49,2.71-7.41a4.23,4.23,0,0,1,.62-1.48,9,9,0,0,0,.62-1,4.4,4.4,0,0,1,1.23-1.24Q500,772.85,497.31,781h-.24Zm23.18-46.84-.49,1.72c-.66,2.29-2.56,7.65-5.67,16l-3.94,11.34L505,774.36c-2.62,7.87-4.7,13.72-6.17,17.49l-3.69,11.36-7.41,22.18-2.95,7.9-.49.75Q502.25,778.3,520.25,731.2Zm-36,79.15.49.24a40,40,0,0,0-1.72,5.67l-.51-.24A46.31,46.31,0,0,1,484.25,810.35Zm-3.94-42.92a1.34,1.34,0,0,1-.51-1v-1.74l.26-10.59.25-12.32c0-4.28-.09-7.41-.25-9.38a2.9,2.9,0,0,1,1.48-2.47l.24,4.92-.24,15.06V782.5c0,2.11.15,5.49.49,10.1a43.8,43.8,0,0,1-.49,5.42h-.26v-1c-.16-2.47-.25-6.06-.25-10.85l-.48-17.75ZM485,858.94h-.24l1.48-4.19h.24Zm3.71-10.13h-.25l3.95-12.32.49.26Zm5.91-33.76-4.19,12.06-3,9.13-5.18,15a18.54,18.54,0,0,1-1,2.47h-.49l.75-2.22,1-3.2,4.7-13.56L491.4,822c1.63-4.61,2.8-8.07,3.44-10.36,1.65-4.44,2.56-7,2.71-7.66l9.13-26.37,2.23-5.91c.15-.51.07-.84-.24-1v-.75a23.16,23.16,0,0,1,1.21-3.68q5.19-14.33,9.13-24.68a2.14,2.14,0,0,1,.75-1.48c-.51,1.81-1.23,4-2.23,6.55s-1.72,4.55-2.2,6h.48l8.38-22.45h.25a1.93,1.93,0,0,1-.25,1.23c-1.32,4.61-2.38,8-3.19,10.37q-1,2.94-4.94,13.8l-5.43,14.8-.75,3.68a5.57,5.57,0,0,0-.48.62,1.58,1.58,0,0,0-.25.86,1.46,1.46,0,0,0-.24,1h1.24a4.69,4.69,0,0,0-.51.62,4.88,4.88,0,0,0-.49,1.1l-1-.72-.24.48-3.71,10.37Zm6.41,9.62a3.58,3.58,0,0,1,.49,1.23c.66,1.81,1.28,3.48,1.85,5.05s1.13,3,1.61,4.3c1.15,3.31,3.05,8.23,5.67,14.8q1,3,3.46,8.89l.25,1.23c-.67-.5-3.09-6.28-7.28-17.4S500.84,825.64,501,824.67Zm-.75,10.85-2-5.19h.49c.5,1,.75,1.48.75,1.48l1,3.44A.24.24,0,0,0,500.26,835.52Zm2.47,6.66L501.5,839l.26-.25a8.84,8.84,0,0,1,.86,1.24A2.36,2.36,0,0,1,502.73,842.18Zm1.48,3.44L503,843.39l.5-.24,1.24,2.22Zm4,9.37L506,849.08h.25q1.49,3.93,2.47,5.91ZM500,826.63l.51-.24q4.43,12.33,13.81,37h-.25Q507.18,846.11,500,826.63Zm15,49.07a15,15,0,0,1-1.1-2.21,18.83,18.83,0,0,0-.86-2l.49-.24,1.74,4.43Zm6.42-1.72-3.2-6.18q-3.46-8.37-7.65-20.22c-1.32-3.29-3.13-8.2-5.43-14.78l-2.71-7.41a5.92,5.92,0,0,1-.73-1.47c-.17-.49-.35-.91-.5-1.24.33,0,.5-.09.5-.24l1.48,3.2,4.43,11.6,4.44,12.08,4.7,11.85,1,3a40.93,40.93,0,0,0,3.7,8.38l.49,1.24Zm3.95.73a42.93,42.93,0,0,1-3.2-5.67l.49-.24,2.95,5.91Zm.48-22.68q-3.43-6.67-9.1-22.2l-1.48-3.2-.75-2.71,2.47,5.18c1.81,5.27,3.62,10.1,5.42,14.55l3.95,9.36A1.38,1.38,0,0,1,525.91,852ZM513.1,741.81a10,10,0,0,0,1.61-3.47,34.83,34.83,0,0,1,1.1-3.46h-.24l-3,6.66Zm-39.21,41.66c.33,3.28.48,5.84.48,7.65h.27l-.27-7.65Zm.24-20.47h-.24v7.41h.24Zm-.24,0v7.41h.24V763Zm.48,20.47h-.48c.33,3.28.48,5.84.48,7.65h.27Zm41.2-48.59-3,6.66.48.27a10,10,0,0,0,1.61-3.47,34.83,34.83,0,0,1,1.1-3.46Zm-41.2,48.59h-.48c.33,3.28.48,5.84.48,7.65h.27ZM473.89,763v7.41h.24V763Zm0,0v7.41h.24V763Zm.48,20.47h-.48c.33,3.28.48,5.84.48,7.65h.27Zm41.2-48.59-3,6.66.48.27a10,10,0,0,0,1.61-3.47,34.83,34.83,0,0,1,1.1-3.46Zm-41.2,48.59h-.48c.33,3.28.48,5.84.48,7.65h.27ZM473.89,763v7.41h.24V763Zm0,0v7.41h.24V763Zm.48,20.47h-.48c.33,3.28.48,5.84.48,7.65h.27Zm41.2-48.59-3,6.66.48.27a10,10,0,0,0,1.61-3.47,34.83,34.83,0,0,1,1.1-3.46Zm-41.2,48.59h-.48c.33,3.28.48,5.84.48,7.65h.27ZM473.89,763v7.41h.24V763Zm0,0v7.41h.24V763Zm.48,20.47h-.48c.33,3.28.48,5.84.48,7.65h.27Zm41.2-48.59-3,6.66.48.27a10,10,0,0,0,1.61-3.47,34.83,34.83,0,0,1,1.1-3.46Zm-41.2,48.59h-.48c.33,3.28.48,5.84.48,7.65h.27ZM473.89,763v7.41h.24V763Zm0,0v7.41h.24V763Zm.48,20.47h-.48c.33,3.28.48,5.84.48,7.65h.27ZM473.89,763v7.41h.24V763Zm.48,20.47h-.48c.33,3.28.48,5.84.48,7.65h.27Zm4.19-46.85c0,1.81.18,4.52.51,8.14V738a69.29,69.29,0,0,1,.73-10.23C479,728.57,478.56,731.53,478.56,736.62Zm.27,11.34v10.61h.24V748ZM508.16,816a1.12,1.12,0,0,0-.07-.35.08.08,0,0,0,0-.07l-.33-.86c-.22-.26-.57-.31-1.06-.2l1,2.71C508.34,817.1,508.49,816.68,508.16,816Zm0,0a1.12,1.12,0,0,0-.07-.35.08.08,0,0,0,0-.07,5.32,5.32,0,0,0-.15-.55.67.67,0,0,0-.18-.31c-.22-.26-.57-.31-1.06-.2l1,2.71C508.34,817.1,508.49,816.68,508.16,816Zm3.46-87.78a7.65,7.65,0,0,0-.24,2l1.48-3.71A3.16,3.16,0,0,0,511.62,728.24Zm4,6.64-3,6.66.48.27a10,10,0,0,0,1.61-3.47,34.83,34.83,0,0,1,1.1-3.46Zm1.72-9.61h-.24a7,7,0,0,1-.24,2l1.23-.51Zm13.56-2.21h-.24v-.24a2.6,2.6,0,0,0-1,1.21l.48,1,.51-.24-.51-.75Z"/><path class="cls-1" d="M563.41,727.49a4.44,4.44,0,0,0,2.22.75,7.85,7.85,0,0,0,2.21-.5v-.25Zm0,0a4.44,4.44,0,0,0,2.22.75,7.85,7.85,0,0,0,2.21-.5v-.25ZM556,748.2v.51h2.22v-.51Zm7.41-20.71a4.44,4.44,0,0,0,2.22.75,7.85,7.85,0,0,0,2.21-.5v-.25Zm0,0a4.44,4.44,0,0,0,2.22.75,7.85,7.85,0,0,0,2.21-.5v-.25Zm0,0a4.44,4.44,0,0,0,2.22.75,7.85,7.85,0,0,0,2.21-.5v-.25Zm0,0a4.44,4.44,0,0,0,2.22.75,7.85,7.85,0,0,0,2.21-.5v-.25Zm0,0a4.44,4.44,0,0,0,2.22.75,7.85,7.85,0,0,0,2.21-.5v-.25Zm0,0a4.44,4.44,0,0,0,2.22.75,7.85,7.85,0,0,0,2.21-.5v-.25Zm0,0a4.44,4.44,0,0,0,2.22.75,7.85,7.85,0,0,0,2.21-.5v-.25Zm0,0a4.44,4.44,0,0,0,2.22.75,7.85,7.85,0,0,0,2.21-.5v-.25Zm30.08,0-.24-2.22-.49-.49-2.23-.24a20.56,20.56,0,0,1-3.7.48c-1.81.18-4.43.25-7.9.25-.81,0-1.81,0-2.95-.12a25.79,25.79,0,0,0-4.19.12l-7.66.26-6.39-.75a4.3,4.3,0,0,0-2,.49L556,727a4.28,4.28,0,0,0-.36,1.34,2.44,2.44,0,0,0,.11,1.37l1,.49c1.63-.34,2.47-.49,2.47-.49h1.23c4.1,0,7.23.07,9.37.24h1l.27.49a4.67,4.67,0,0,1-1.24.51l-8.64-.27a4.77,4.77,0,0,0-.86.13,1.52,1.52,0,0,1-1.1-.13,8,8,0,0,1-2.47-.48l-1.24,1v.24l4,.24-3.2.49c-.84,0-1.23.33-1.23,1a2.64,2.64,0,0,1-1,2.23,1.08,1.08,0,0,0-.24,1.23,1.4,1.4,0,0,0,1,1l.49.27a4.19,4.19,0,0,0-1.48,2.95c0,1,.9,1.72,2.71,2.21l-2.22,1.74a4.43,4.43,0,0,0,3.46,1.72,11.9,11.9,0,0,0,2.34-.24,19.1,19.1,0,0,0,1.85-.51l-1.24-.48c.82-.82,1.39-.91,1.72-.25a4.37,4.37,0,0,0,3.22,1.24h4.44l-.51,1.72H564.4v.24a10.74,10.74,0,0,0,2.71.24,7.81,7.81,0,0,1,2.45.27V749h-5.67v.24l5.93.49.25,7.65-.25,8.89-.5,27.61v5.91c0,4.61-.09,8.08-.25,10.37l.25,4.94-.25,5.16c-.15,2-.24,4.94-.24,8.89,0,1.32,0,2.87.13,4.67a63.12,63.12,0,0,1-.13,6.42l-.24,11.34a1.16,1.16,0,0,1-.13.5.37.37,0,0,0,.13.49,4.51,4.51,0,0,1,.24,1.72,10.57,10.57,0,0,1-.24,2.1,4.11,4.11,0,0,0,0,2.09l-3.46-.24h-3.2l-3,.51v.24h7.39c-.81.15-1.76.33-2.84.48a20,20,0,0,0-3.07.75,3.09,3.09,0,0,0,2.1.49,4,4,0,0,0,1.85-.24l-.51-.49h2.71c1,0,1.57.11,1.75.35a2.76,2.76,0,0,1,0,1.61l-11.85-.24a5.76,5.76,0,0,1,1.24-1.37,1.44,1.44,0,0,0,.48-1.85,1.9,1.9,0,0,0-2.47.51,1.5,1.5,0,0,0,0,2.23v.24l-.24,2.2a13.77,13.77,0,0,0,.49,3.22l-.25,1-1,4.94.49-.24a.44.44,0,0,0,.24.38.35.35,0,0,1,.24.35,6.14,6.14,0,0,1-.72,2.71,2,2,0,0,0-.51,1.5,2,2,0,0,0,1,2v.73a1.58,1.58,0,0,0-.24,1,3.55,3.55,0,0,1-.13.75c-.09.34,0,.58.13.73a.91.91,0,0,0,.73.27,1,1,0,0,1,.75.24,12.53,12.53,0,0,0,3.08-.51,7.16,7.16,0,0,1,3.09-.24l5.43.51a11.22,11.22,0,0,1,2.44.24,14,14,0,0,0,2.47.24l9.86-.24a11.9,11.9,0,0,1,2.61.24c.72.16,1.34.33,1.85.49h.73c.33-1,.9-1.06,1.74-.25l.73-.72h.48c.84,0,1.24-.66,1.24-2,.33-3.28.5-5.67.5-7.14l.25-7.15-.25-5.18.25-7.66V841.43a16.34,16.34,0,0,0-.14-1.86,9,9,0,0,1,.14-2.58v-8.13L593,817.5V816l.25-5.91a18.29,18.29,0,0,0-.25-3,17.43,17.43,0,0,1-.24-2.95V793.08l.24-19.23V736.38a15.12,15.12,0,0,0-.24-3.22l-.26-1.72a6.59,6.59,0,0,1,.75-3A1.54,1.54,0,0,0,593.49,727.49Zm-37,136.12-.24-.48.49-.24a15,15,0,0,0,2.58-.25,14,14,0,0,1,2.6-.26,6.11,6.11,0,0,1,2,.26,3,3,0,0,0,1.48.11,3.1,3.1,0,0,1,1.48.14h1.5v.24a.8.8,0,0,1-1,.24c-3.13,0-5.51-.09-7.14-.24A20.23,20.23,0,0,0,556.5,863.61Zm11.58,14.8v.51l-7.39-.51v-.48Zm-4.19-7.89a5.91,5.91,0,0,1,1.85-1c.25,0,.47.39.62,1.23Zm-1-1.48a6.5,6.5,0,0,1,3-.73c1.3,0,2.14.33,2.47,1Zm-5.42-4.19v-.49a9.05,9.05,0,0,1,2.44-.24,24.06,24.06,0,0,1,3,.24,9.13,9.13,0,0,0,3,0v.49Zm1.21,1.48a10.06,10.06,0,0,1,3.22.5h-5.18A2.84,2.84,0,0,1,558.71,866.33ZM557,872.74h4V873h-4Zm1.48,6.66v-.24l4.94.49v.48Zm10.6,1h-2.22v.24l2.22.48v.25l-6.15-.73.24-.24,2-.51v-.24l3.94.24Zm-5.66-148.23h5.91a49.94,49.94,0,0,0-5.91.26Zm-.25,6.17h5.91v.49a13.51,13.51,0,0,0-3-.24h-3Zm6.16,6.42h-5.19a1.63,1.63,0,0,1-.86-.24,4.69,4.69,0,0,1-.61-.51c.17-.33.57-.48,1.23-.48a1.17,1.17,0,0,0,1.24-1,7.9,7.9,0,0,0,2.09-.37,2.62,2.62,0,0,1,2.34.37V743h-3v.26l2.72.25.75.72C569.74,744.58,569.49,744.76,569.32,744.76Zm.75-15.55h-6.91l-.5-.48,1.47-.25v-.24c-3-.33-5.09-.5-6.39-.5a6.75,6.75,0,0,1,2-.73c-.15,0-.24-.09-.24-.27a1.38,1.38,0,0,1-1-.24c-.16,0-.25-.07-.25-.24l2-.49c5.25,0,9.2.09,11.82.24l.24.25-1.21,2.47ZM571.79,857h-.25V840.68h.25Zm0-19.71h-.25V832.8h.25Zm1-65.35q0,5.93-.24,24.52t-1,34.17l.73-80.64h.51Zm1-17.27h-.51v-4.68h.51Zm1,25.89H575v5.18h-.24Zm-.24,76h-.24v-3h.24Zm0-31.32h-.24v-3h.24Zm.48-20.71c-.33-.66-.48-3-.48-7.17a62,62,0,0,1,.24-6.39c.33,3.61.51,6.39.51,8.38A36.56,36.56,0,0,1,575,804.44Zm.27-33.3h-.51v-2.71h.51Zm0-12.33H575l-.24-1v-6.91a.44.44,0,0,1,.24-.37.37.37,0,0,0,.27-.35c.33.33.48.57.48.72C575.73,752.57,575.58,755.19,575.25,758.81Zm2.45,97.66h-.24V843.39h.24Zm-.24-30.83.24-75.45H578l.24,37.73Q578.2,806.66,577.46,825.64Zm5.42,31.07h-.48V835a82.38,82.38,0,0,1,.72,10.85Zm.75-.24h-.24v-3.2h.24Zm.62-71c.06,2.14.11,3.95.11,5.43v6.39c0,6.75-.16,11.76-.49,15.07.16-3,.2-5.56.14-7.79s-.14-4-.14-5.29v-6.42q0-9.86.49-14.8Q584.12,782.24,584.25,785.45Zm.11-23.93h-.24v-7.39h-.49q0,52.77-1,79.16l.24-83.1h1.48Zm1.74,42.68-.75,52.51-.24-21.7q0-19,.73-37.74h.26Zm0-8.89h-.51l.51-38Zm2.21-6.66q0,20.72-1,37.25.45-39,.48-58.71h.73C588.39,772,588.31,779.12,588.31,788.65Zm-22.68-60.41a7.85,7.85,0,0,0,2.21-.5v-.25h-4.43A4.44,4.44,0,0,0,565.63,728.24Zm-2.22-.75a4.44,4.44,0,0,0,2.22.75,7.85,7.85,0,0,0,2.21-.5v-.25Zm0,0a4.44,4.44,0,0,0,2.22.75,7.85,7.85,0,0,0,2.21-.5v-.25Zm0,0a4.44,4.44,0,0,0,2.22.75,7.85,7.85,0,0,0,2.21-.5v-.25Zm0,0a4.44,4.44,0,0,0,2.22.75,7.85,7.85,0,0,0,2.21-.5v-.25Zm0,0a4.44,4.44,0,0,0,2.22.75,7.85,7.85,0,0,0,2.21-.5v-.25Zm0,0a4.44,4.44,0,0,0,2.22.75,7.85,7.85,0,0,0,2.21-.5v-.25Zm0,0a4.44,4.44,0,0,0,2.22.75,7.85,7.85,0,0,0,2.21-.5v-.25Zm0,0a4.44,4.44,0,0,0,2.22.75,7.85,7.85,0,0,0,2.21-.5v-.25Z"/><path class="cls-1" d="M663.78,753.87l-1.24,3.46.24.24,1.24-3.7Zm-3,11.36-1,3.2h.11c.09,0,.13.08.13.24.16-.64.33-1.24.49-1.72s.33-1,.5-1.48A.21.21,0,0,1,660.82,765.23Zm-1.74,5.91v-.24l-1.48,4.94h.24l1.5-4.7Zm-4,49.33-.73,3.69a22.21,22.21,0,0,0,1-3.69Zm1.5-34.78-2.23,6.91.49.24c1.15-3.77,1.81-6.09,2-6.9A.22.22,0,0,0,656.63,785.69Zm-4,16.28-2,5.43.51.24a24.53,24.53,0,0,1,1-3,15.19,15.19,0,0,0,.75-2.47Zm-.37-1.48c-.09,0-.13-.08-.13-.24a26.66,26.66,0,0,0-1.72,4.92l.48.24,1.48-4.92Zm2.82,20-.73,3.69a22.21,22.21,0,0,0,1-3.69Zm-10.34,7.64-1.48,3.94h-.24l6.15-21.46h-.48l-8.14,26.16L634.18,857h.48c.84-3,2-6.3,3.47-10.1h.24l-.24,1.72h.48a30.35,30.35,0,0,1,1.74-4.92l4.68-15.3A.22.22,0,0,0,644.79,828.11Zm19-74.24-1.24,3.46.24.24,1.24-3.7Zm-3,11.36-1,3.2h.11c.09,0,.13.08.13.24.16-.64.33-1.24.49-1.72s.33-1,.5-1.48A.21.21,0,0,1,660.82,765.23Zm-1.74,5.91v-.24l-1.48,4.94h.24l1.5-4.7Zm-2.45,14.55-2.23,6.91.49.24c1.15-3.77,1.81-6.09,2-6.9A.22.22,0,0,0,656.63,785.69Zm-4,16.28-2,5.43.51.24a24.53,24.53,0,0,1,1-3,15.19,15.19,0,0,0,.75-2.47Zm-.37-1.48c-.09,0-.13-.08-.13-.24a26.66,26.66,0,0,0-1.72,4.92l.48.24,1.48-4.92Zm-7.52,27.62-1.48,3.94h-.24l6.15-21.46h-.48l-8.14,26.16L634.18,857h.48c.84-3,2-6.3,3.47-10.1h.24l-.24,1.72h.48a30.35,30.35,0,0,1,1.74-4.92l4.68-15.3A.22.22,0,0,0,644.79,828.11Zm0,0-1.48,3.94h-.24l6.15-21.46h-.48l-8.14,26.16L634.18,857h.48c.84-3,2-6.3,3.47-10.1h.24l-.24,1.72h.48a30.35,30.35,0,0,1,1.74-4.92l4.68-15.3A.22.22,0,0,0,644.79,828.11Zm7.52-27.62c-.09,0-.13-.08-.13-.24a26.66,26.66,0,0,0-1.72,4.92l.48.24,1.48-4.92Zm.37,1.48-2,5.43.51.24a24.53,24.53,0,0,1,1-3,15.19,15.19,0,0,0,.75-2.47Zm2.45,18.5-.73,3.69a22.21,22.21,0,0,0,1-3.69Zm1.5-34.78-2.23,6.91.49.24c1.15-3.77,1.81-6.09,2-6.9A.22.22,0,0,0,656.63,785.69Zm2.45-14.55v-.24l-1.48,4.94h.24l1.5-4.7Zm1.74-5.91-1,3.2h.11c.09,0,.13.08.13.24.16-.64.33-1.24.49-1.72s.33-1,.5-1.48A.21.21,0,0,1,660.82,765.23Zm3-11.36-1.24,3.46.24.24,1.24-3.7Zm-8.65,66.6-.73,3.69a22.21,22.21,0,0,0,1-3.69Zm8.65-66.6-1.24,3.46.24.24,1.24-3.7Zm-3,11.36-1,3.2h.11c.09,0,.13.08.13.24.16-.64.33-1.24.49-1.72s.33-1,.5-1.48A.21.21,0,0,1,660.82,765.23Zm-1.74,5.91v-.24l-1.48,4.94h.24l1.5-4.7Zm-2.45,14.55-2.23,6.91.49.24c1.15-3.77,1.81-6.09,2-6.9A.22.22,0,0,0,656.63,785.69Zm-4,16.28-2,5.43.51.24a24.53,24.53,0,0,1,1-3,15.19,15.19,0,0,0,.75-2.47Zm-.37-1.48c-.09,0-.13-.08-.13-.24a26.66,26.66,0,0,0-1.72,4.92l.48.24,1.48-4.92Zm-7.52,27.62-1.48,3.94h-.24l6.15-21.46h-.48l-8.14,26.16L634.18,857h.48c.84-3,2-6.3,3.47-10.1h.24l-.24,1.72h.48a30.35,30.35,0,0,1,1.74-4.92l4.68-15.3A.22.22,0,0,0,644.79,828.11Zm0,0-1.48,3.94h-.24l6.15-21.46h-.48l-8.14,26.16L634.18,857h.48c.84-3,2-6.3,3.47-10.1h.24l-.24,1.72h.48a30.35,30.35,0,0,1,1.74-4.92l4.68-15.3A.22.22,0,0,0,644.79,828.11Zm7.52-27.62c-.09,0-.13-.08-.13-.24a26.66,26.66,0,0,0-1.72,4.92l.48.24,1.48-4.92Zm.37,1.48-2,5.43.51.24a24.53,24.53,0,0,1,1-3,15.19,15.19,0,0,0,.75-2.47Zm2.45,18.5-.73,3.69a22.21,22.21,0,0,0,1-3.69Zm1.5-34.78-2.23,6.91.49.24c1.15-3.77,1.81-6.09,2-6.9A.22.22,0,0,0,656.63,785.69Zm2.45-14.55v-.24l-1.48,4.94h.24l1.5-4.7Zm1.74-5.91-1,3.2h.11c.09,0,.13.08.13.24.16-.64.33-1.24.49-1.72s.33-1,.5-1.48A.21.21,0,0,1,660.82,765.23Zm3-11.36-1.24,3.46.24.24,1.24-3.7Zm-8.65,66.6-.73,3.69a22.21,22.21,0,0,0,1-3.69Zm8.65-66.6-1.24,3.46.24.24,1.24-3.7Zm-3,11.36-1,3.2h.11c.09,0,.13.08.13.24.16-.64.33-1.24.49-1.72s.33-1,.5-1.48A.21.21,0,0,1,660.82,765.23Zm-1.74,5.91v-.24l-1.48,4.94h.24l1.5-4.7Zm-2.45,14.55-2.23,6.91.49.24c1.15-3.77,1.81-6.09,2-6.9A.22.22,0,0,0,656.63,785.69Zm-4,16.28-2,5.43.51.24a24.53,24.53,0,0,1,1-3,15.19,15.19,0,0,0,.75-2.47Zm-.37-1.48c-.09,0-.13-.08-.13-.24a26.66,26.66,0,0,0-1.72,4.92l.48.24,1.48-4.92Zm-7.52,27.62-1.48,3.94h-.24l6.15-21.46h-.48l-8.14,26.16L634.18,857h.48c.84-3,2-6.3,3.47-10.1h.24l-.24,1.72h.48a30.35,30.35,0,0,1,1.74-4.92l4.68-15.3A.22.22,0,0,0,644.79,828.11Zm0,0-1.48,3.94h-.24l6.15-21.46h-.48l-8.14,26.16L634.18,857h.48c.84-3,2-6.3,3.47-10.1h.24l-.24,1.72h.48a30.35,30.35,0,0,1,1.74-4.92l4.68-15.3A.22.22,0,0,0,644.79,828.11Zm7.52-27.62c-.09,0-.13-.08-.13-.24a26.66,26.66,0,0,0-1.72,4.92l.48.24,1.48-4.92Zm.37,1.48-2,5.43.51.24a24.53,24.53,0,0,1,1-3,15.19,15.19,0,0,0,.75-2.47Zm2.45,18.5-.73,3.69a22.21,22.21,0,0,0,1-3.69Zm1.5-34.78-2.23,6.91.49.24c1.15-3.77,1.81-6.09,2-6.9A.22.22,0,0,0,656.63,785.69Zm2.45-14.55v-.24l-1.48,4.94h.24l1.5-4.7Zm1.74-5.91-1,3.2h.11c.09,0,.13.08.13.24.16-.64.33-1.24.49-1.72s.33-1,.5-1.48A.21.21,0,0,1,660.82,765.23Zm3-11.36-1.24,3.46.24.24,1.24-3.7Zm-8.65,66.6-.73,3.69a22.21,22.21,0,0,0,1-3.69Zm8.65-66.6-1.24,3.46.24.24,1.24-3.7Zm-3,11.36-1,3.2h.11c.09,0,.13.08.13.24.16-.64.33-1.24.49-1.72s.33-1,.5-1.48A.21.21,0,0,1,660.82,765.23Zm-1.74,5.91v-.24l-1.48,4.94h.24l1.5-4.7Zm-2.45,14.55-2.23,6.91.49.24c1.15-3.77,1.81-6.09,2-6.9A.22.22,0,0,0,656.63,785.69Zm-4,16.28-2,5.43.51.24a24.53,24.53,0,0,1,1-3,15.19,15.19,0,0,0,.75-2.47Zm-.37-1.48c-.09,0-.13-.08-.13-.24a26.66,26.66,0,0,0-1.72,4.92l.48.24,1.48-4.92Zm-7.52,27.62-1.48,3.94h-.24l6.15-21.46h-.48l-8.14,26.16L634.18,857h.48c.84-3,2-6.3,3.47-10.1h.24l-.24,1.72h.48a30.35,30.35,0,0,1,1.74-4.92l4.68-15.3A.22.22,0,0,0,644.79,828.11Zm0,0-1.48,3.94h-.24l6.15-21.46h-.48l-8.14,26.16L634.18,857h.48c.84-3,2-6.3,3.47-10.1h.24l-.24,1.72h.48a30.35,30.35,0,0,1,1.74-4.92l4.68-15.3A.22.22,0,0,0,644.79,828.11Zm7.52-27.62c-.09,0-.13-.08-.13-.24a26.66,26.66,0,0,0-1.72,4.92l.48.24,1.48-4.92Zm.37,1.48-2,5.43.51.24a24.53,24.53,0,0,1,1-3,15.19,15.19,0,0,0,.75-2.47Zm2.45,18.5-.73,3.69a22.21,22.21,0,0,0,1-3.69Zm1.5-34.78-2.23,6.91.49.24c1.15-3.77,1.81-6.09,2-6.9A.22.22,0,0,0,656.63,785.69Zm2.45-14.55v-.24l-1.48,4.94h.24l1.5-4.7Zm1.74-5.91-1,3.2h.11c.09,0,.13.08.13.24.16-.64.33-1.24.49-1.72s.33-1,.5-1.48A.21.21,0,0,1,660.82,765.23Zm3-11.36-1.24,3.46.24.24,1.24-3.7Zm-8.65,66.6-.73,3.69a22.21,22.21,0,0,0,1-3.69Zm8.65-66.6-1.24,3.46.24.24,1.24-3.7Zm-3,11.36-1,3.2h.11c.09,0,.13.08.13.24.16-.64.33-1.24.49-1.72s.33-1,.5-1.48A.21.21,0,0,1,660.82,765.23Zm-1.74,5.67-1.48,4.94h.24l1.5-4.7h-.26Zm-2.45,14.79-2.23,6.91.49.24c1.15-3.77,1.81-6.09,2-6.9A.22.22,0,0,0,656.63,785.69ZM650.7,807.4l.51.24a24.53,24.53,0,0,1,1-3,15.19,15.19,0,0,0,.75-2.47l-.25-.24Zm1.72-6.91h-.11c-.09,0-.13-.08-.13-.24a26.66,26.66,0,0,0-1.72,4.92l.48.24Zm-3.68,10.1-8.14,26.16L634.18,857h.48c.84-3,2-6.3,3.47-10.1h.24l-.24,1.72h.48a30.35,30.35,0,0,1,1.74-4.92l4.68-15.3a.22.22,0,0,0-.24-.24l-1.48,3.94h-.24l6.15-21.46Zm42.41,56.35a5.23,5.23,0,0,1-.25-1.58,3.76,3.76,0,0,0-.13-1,1.34,1.34,0,0,1,.13-1,2.77,2.77,0,0,0,.25-1.23,9.34,9.34,0,0,0-.49-2.72,2.47,2.47,0,0,0-2-1.72H687.2l-8.38.25H669.2l-14.55.24H649c.66-3.11,1.06-5.25,1.23-6.4l.25-.26a11,11,0,0,1,.75-1.72c.3-.66.64-1.39,1-2.23l2.22-6.15c.16-.49.44-1.37.86-2.58a7.05,7.05,0,0,0,.38-3.33c0-.18.15-.42.48-.75l2.23-7.15a5.85,5.85,0,0,1,.24-1.72,39.62,39.62,0,0,1,1.61-5.18c.58-1.48,1-2.72,1.35-3.71l4-13.32,3-9.86a5.92,5.92,0,0,0,.24-2h-.24a17.7,17.7,0,0,0-1,2.47c-2,6.57-3.31,10.85-4,12.83-.33,1-.66,2-1,3.07s-.66,2.18-1,3.33l-3,9.37h-.48q10.85-36.48,16-54.74h.51l-5.94,21.7.51.25c1.3-3.11,3-7.81,4.92-14l2-6.18,6.41-20.22L688.43,729H686v-1.72l-1,.24v-1.23c-1-1-2.45-1.33-4.43-1h-5.91c-1.33,0-3,0-4.94-.12s-4.28,0-6.91.12q-5.65,0-16.51.5-5.92.5-8.39.49l-5.42-.25a53.16,53.16,0,0,0-5.67-.24,54.22,54.22,0,0,0-8.89.73,5.74,5.74,0,0,0-1.72.75A11.32,11.32,0,0,1,615,728l.24.5h1l-1.74,1.73a3.13,3.13,0,0,1,.27,1.47c0,1.33-.34,2.05-1,2.23l.73.49-.73,1a1,1,0,0,1,.73.24v2.47l-.48.49v1.72c.15.33.33.61.48.88a.42.42,0,0,1,0,.62,11,11,0,0,0-.48,4.43l.48,1.23h.27c0,.49-.18.73-.51.73l1,1.24a.45.45,0,0,1,.38.24.36.36,0,0,0,.37.26l2.71.25,8.38-.25,11.82.25a53.36,53.36,0,0,0,5.94-.51,6.76,6.76,0,0,0,1.23-.11,4.35,4.35,0,0,1,1.72.11,12.25,12.25,0,0,0,3.82.51h3.84a2.84,2.84,0,0,1,1.23.24,29.68,29.68,0,0,1-1,3,15.82,15.82,0,0,0-.75,2.47l-6.4,19.72c-.17.51-.9,2.89-2.22,7.17l-3.47,10.85-2.95,9.11c-1.33,4.94-2.38,8.64-3.2,11.11-.33.82-.75,1.72-1.24,2.72a11.7,11.7,0,0,0-1,2.71L629.24,837c-.82,2.63-2.21,6.58-4.19,11.82L618.15,871a18.66,18.66,0,0,0-1.48,6.16,6.86,6.86,0,0,0,1,3.46c.82,0,1,.42.49,1.23a11.92,11.92,0,0,0,2.71.25,49,49,0,0,1,5.18.37,22,22,0,0,0,5.18.11,2.58,2.58,0,0,1,2.21,0,3.92,3.92,0,0,0,1.74.27l3.2-.27a34.64,34.64,0,0,0,5.18.13c1.48-.08,2.72-.13,3.71-.13,1.3,0,3,0,4.92.13a61.34,61.34,0,0,0,6.9-.13l4.94-.24,2.71.24,7.15-.24a21.85,21.85,0,0,1,4.19-.49,13.62,13.62,0,0,1,3,.49,13.52,13.52,0,0,0,2.71.51,13.76,13.76,0,0,0,4.19-.75c1.3-.33,2-.71,2.2-1.11a5.9,5.9,0,0,0,0-2.6,9.46,9.46,0,0,0-.11-1c-.08-.51,0-.84.11-1a9.6,9.6,0,0,0,.51-3.46,8.41,8.41,0,0,1,.49-3.44,1.6,1.6,0,0,0,.24-1A6.61,6.61,0,0,0,691.15,866.94Zm-36-4.3,10.37-.26c6.9-.31,12.08-.4,15.55-.24q-3,0-9.38.5c-6.59.33-11.51.49-14.8.49-2,0-5.09-.16-9.37-.49l.73-.26A66.63,66.63,0,0,0,655.13,862.64ZM647,867.8c3,.33,5.19.51,6.66.51l5.43.49H645.52a.23.23,0,0,1-.25-.25A10,10,0,0,1,647,867.8Zm-.24-1.72q9.36,0,27.63-.48-11.83,1-18.26,1A65.79,65.79,0,0,1,646.75,866.08Zm.51,3a53.06,53.06,0,0,0,6.15.51,10.27,10.27,0,0,0,2.6.11c.73-.07,1.35-.11,1.83-.11a1,1,0,0,1,.75.24,13.17,13.17,0,0,1-3,.48,20.17,20.17,0,0,1-3.95-.37,21.89,21.89,0,0,0-4-.35,9,9,0,0,0-2.47.24v-.51Zm1,1.23c2.8.18,7.08.25,12.83.25,3.11,0,7.81-.16,14.05-.49h5.19a1,1,0,0,1,.86-.13,4.65,4.65,0,0,0,.86.13v.49c-3.44-.16-8.3-.07-14.54.26l-11.11.24a93.61,93.61,0,0,1-11.34-.5Zm4.32-28.09a.65.65,0,0,1-.13.72c-1.3,3.29-2.21,5.85-2.71,7.66a9.1,9.1,0,0,0-1,2.71h-.25a9.63,9.63,0,0,1,.25-2.47,1.12,1.12,0,0,1-.75.24l1-2.71.48-.24c.51-1.48,1.41-3.71,2.72-6.66l.5-.25A1.36,1.36,0,0,0,652.55,842.18Zm.62-2.72-.49-.26a87.93,87.93,0,0,0,3.2-9.37A23.4,23.4,0,0,1,653.17,839.46ZM680.3,748.2c0,.18.08.24.24.24l-5.67,18.27h-.24c.81-4.44,1.23-6.66,1.23-6.66s.07-.16.25-.49l2.95-9.62Zm-32.56-19v.51h-4.67Zm-14.55,3.22,28.87-.75v.49h-1.5q-5.16.26-15.29.26l-10.85.25h-1.23Zm28.6.49c-.33.33-1.39.48-3.2.48a11.91,11.91,0,0,1-3.7-.48Zm-10.85.75h-1.23l-6.91.24h-7.14c.81-.51,3.94-.75,9.37-.75C648.32,733.16,650.28,733.34,650.94,733.67Zm-29.84-4.94h4.19l-4.19.48Zm2,7.39a1,1,0,0,1-.75-.25,1.54,1.54,0,0,1,1-.24l5.67-.75,16.78-.24h15.53v.51l-2.23.24H628Zm14.29,2.09c2.31-.07,4.19-.11,5.69-.11,2-.18,5.09-.24,9.35-.24,3.62,0,6.33.06,8.14.24q-.49.24-14.78.24c-5.23,0-9.22,0-11.95-.08C635.08,738.26,636.27,738.26,637.38,738.21Zm3.7,6-6.66-.48v-.49h6.91a4,4,0,0,0,1.74-.5l1.48-.25h14.53V743a4.81,4.81,0,0,0-1.24.51q.27,0,.27.24v.48l-9.62-.48v-.24h-7.65v.24l.24.24Zm9.86.51H644v-.24A69,69,0,0,1,650.94,744.76Zm-8.14,2v-.24h14.32v.24Zm-15,109.51-1.48,3.44h-.48c.15-.31.33-.64.48-1a2.62,2.62,0,0,0,.25-1.24L631,842.9c.31-1.14.91-2.86,1.72-5.18s1.48-4.34,2-6.15l3.71-11.6q3-9.86,4-12.82,6.15-18.25,9.37-31.07L655.64,763l3.44-11.84a1.88,1.88,0,0,1,.26-.73c.16-.33.49-.33,1,0-.66,2.14-1,3.44-1.23,4l-4.19,13.8-2.71,10.61a53,53,0,0,1-1.59,5.29c-.6,1.57-1,2.94-1.37,4.08-1.81,6.73-3.13,11.19-4,13.33-.33,1.14-1.23,3.77-2.71,7.87-.66,2-2,6.26-3.95,12.83l-4.67,13.57-2.47,8.14Zm6.18-13.57c-.84,2.3-1.9,5.76-3.22,10.35h-.49l3.2-10.59Zm6.9.49-2.23,7.65a59.78,59.78,0,0,1-2.71,6.9V857a2.2,2.2,0,0,1-1.48,1.24,4,4,0,0,1-1.72-.49l-1.23.73-1.48.51a.56.56,0,0,0-.13-.38c-.07-.09-.05-.2.13-.37.48-1.48,1.06-3.4,1.72-5.78s1.57-5.14,2.71-8.27l6.66-20.22,3.71-12.58q5.65-17.49,7.14-22.69c.82-2.47,1.9-6.15,3.2-11.09l1.24-4.94c3.28-11.34,5.36-18.42,6.17-21.2a2.05,2.05,0,0,1,.62-1.23c.24-.18.77-.18,1.61,0l-.27,1.47,1.48-2,.51.26a255.17,255.17,0,0,0-7.9,28.34,44.52,44.52,0,0,0-1.72,6.42h.49l.24-1a22.5,22.5,0,0,0,1-3.68,8.81,8.81,0,0,1,1.24-3.22,4.21,4.21,0,0,0,1-2.21,15.64,15.64,0,0,0,.24-2c.49-1.3.82-2.14,1-2.47a9.87,9.87,0,0,0,1.47-3.69l2.72-9.88a1.63,1.63,0,0,1,.48-1.21L664.26,766l-2,6.9c-1.32,5.27-2.65,9.88-3.95,13.83l-3.7,12.81a8,8,0,0,0-.49,2l1-2.47,1.24-3c0,.15.08.24.26.24a29.4,29.4,0,0,0-1.74,4.92.8.8,0,0,1-.24.51c-.16.15-.33.09-.49-.24l-1.74,4.43q-3.95,13.8-6.15,20.71l-2.23,6.9C643.22,835.67,642.14,838.87,640.84,843.15Zm23.42-81.38-1.48,5.42-.48-.24a49.75,49.75,0,0,0,1.72-5.18ZM643.8,857.22v-.51l-.73,1.48-.27-.24v-.73l2-7.41,2.47-7.39c.48-1.32.92-2.71,1.34-4.19s.86-3,1.37-4.46l1.72-4.91a34.4,34.4,0,0,0,1.24-4.08,30.28,30.28,0,0,1,1.23-4.06l7.39-23.93c1.81-5.58,3.22-10.43,4.19-14.56l1.74-6.66a32,32,0,0,1,1.35-4.19,36.14,36.14,0,0,0,1.36-4.19,43.61,43.61,0,0,0,1.22-5.18l1.23-5.16a61.45,61.45,0,0,1,2-5.94,3,3,0,0,1,.73-1.47v1.23s.08.18.26.49l1-1.22h.51c-2.65,9.2-4.28,15.29-4.94,18.24h-.49l.49-3.94.75-4.68a10.28,10.28,0,0,1,2-4.94,4.94,4.94,0,0,0,.37-1.24,3.71,3.71,0,0,1,.38-1.23l-.51-.24a20.7,20.7,0,0,0-1.47,3.94l-2.23,8.39L669,773.37l-1.48,5.91-2,7.65a4.27,4.27,0,0,0-.25,1.72,108.24,108.24,0,0,0,3.71-14h.48a9,9,0,0,1-.24,2.47q-2.48,10.09-4.7,17.49c-1.14,3.13-2,5.93-2.71,8.4l-2.2,7.39-4.7,15.79a9.84,9.84,0,0,1-1.24,2.21.21.21,0,0,1-.24-.24l.51-2.47c-.18.5-.46,1.32-.88,2.47a9.27,9.27,0,0,0-.62,2.95.83.83,0,0,1-.35.75.83.83,0,0,0-.38.73c-.48,1.17-1.57,4-3.2,8.4a42.22,42.22,0,0,1-1.74,5.16v.75a12.43,12.43,0,0,0,1.85-4.32,9.94,9.94,0,0,1,2.1-4.3h.24a30.85,30.85,0,0,1-1.23,4.43c-1.64,5.91-3,10.35-3.93,13.32a4,4,0,0,1-.51,1.72l-1.23.73A2.69,2.69,0,0,1,643.8,857.22Zm6.9,21.94-4.68-.51v-.24l4.92.24Zm23.68-1-21.7,1v-.24q6.89-.49,21.7-1Zm9.11-6.9-1,.48-2.71-.24-16.28.51-6.66.24c-5.27,0-9.22-.09-11.84-.24h-.48l-.27-.51a9.16,9.16,0,0,1,3.46-.24c2.14.15,5.19.24,9.13.24,3.11,0,5.43-.09,6.91-.24a45.39,45.39,0,0,1,5.29-.25,53.21,53.21,0,0,0,5.56-.24h8.86ZM672.91,860.9v-.24l6.39-.24a15.1,15.1,0,0,1,4.46.48Zm13.8-1H674.63v-.26h12.08ZM664,753.87h-.24l-1.24,3.46.24.24Zm-3.95,14.8c.16-.64.33-1.24.49-1.72s.33-1,.5-1.48a.21.21,0,0,1-.24-.24l-1,3.2h.11C660,768.43,660.07,768.51,660.07,768.67Zm-.73,2.47h-.26v-.24l-1.48,4.94h.24Zm-2.47,14.8a.22.22,0,0,0-.24-.25l-2.23,6.91.49.24C656,789.07,656.7,786.75,656.87,785.94Zm-1.74,34.53-.73,3.69a22.21,22.21,0,0,0,1-3.69Zm-3.92-12.83a24.53,24.53,0,0,1,1-3,15.19,15.19,0,0,0,.75-2.47l-.25-.24-2,5.43Zm1.21-7.15h-.11c-.09,0-.13-.08-.13-.24a26.66,26.66,0,0,0-1.72,4.92l.48.24Zm-7.63,27.62-1.48,3.94h-.24l6.15-21.46h-.48l-8.14,26.16L634.18,857h.48c.84-3,2-6.3,3.47-10.1h.24l-.24,1.72h.48a30.35,30.35,0,0,1,1.74-4.92l4.68-15.3A.22.22,0,0,0,644.79,828.11Zm0,0-1.48,3.94h-.24l6.15-21.46h-.48l-8.14,26.16L634.18,857h.48c.84-3,2-6.3,3.47-10.1h.24l-.24,1.72h.48a30.35,30.35,0,0,1,1.74-4.92l4.68-15.3A.22.22,0,0,0,644.79,828.11Zm7.52-27.62c-.09,0-.13-.08-.13-.24a26.66,26.66,0,0,0-1.72,4.92l.48.24,1.48-4.92Zm.37,1.48-2,5.43.51.24a24.53,24.53,0,0,1,1-3,15.19,15.19,0,0,0,.75-2.47Zm4-16.28-2.23,6.91.49.24c1.15-3.77,1.81-6.09,2-6.9A.22.22,0,0,0,656.63,785.69Zm2.45-14.55v-.24l-1.48,4.94h.24l1.5-4.7Zm1.74-5.91-1,3.2h.11c.09,0,.13.08.13.24.16-.64.33-1.24.49-1.72s.33-1,.5-1.48A.21.21,0,0,1,660.82,765.23Zm3-11.36-1.24,3.46.24.24,1.24-3.7Zm-8.65,66.6-.73,3.69a22.21,22.21,0,0,0,1-3.69Zm8.65-66.6-1.24,3.46.24.24,1.24-3.7Zm-3,11.36-1,3.2h.11c.09,0,.13.08.13.24.16-.64.33-1.24.49-1.72s.33-1,.5-1.48A.21.21,0,0,1,660.82,765.23Zm-1.74,5.91v-.24l-1.48,4.94h.24l1.5-4.7Zm-2.45,14.55-2.23,6.91.49.24c1.15-3.77,1.81-6.09,2-6.9A.22.22,0,0,0,656.63,785.69Zm-1.5,34.78-.73,3.69a22.21,22.21,0,0,0,1-3.69ZM652.68,802l-2,5.43.51.24a24.53,24.53,0,0,1,1-3,15.19,15.19,0,0,0,.75-2.47Zm-.37-1.48c-.09,0-.13-.08-.13-.24a26.66,26.66,0,0,0-1.72,4.92l.48.24,1.48-4.92Zm-7.52,27.62-1.48,3.94h-.24l6.15-21.46h-.48l-8.14,26.16L634.18,857h.48c.84-3,2-6.3,3.47-10.1h.24l-.24,1.72h.48a30.35,30.35,0,0,1,1.74-4.92l4.68-15.3A.22.22,0,0,0,644.79,828.11Zm0,0-1.48,3.94h-.24l6.15-21.46h-.48l-8.14,26.16L634.18,857h.48c.84-3,2-6.3,3.47-10.1h.24l-.24,1.72h.48a30.35,30.35,0,0,1,1.74-4.92l4.68-15.3A.22.22,0,0,0,644.79,828.11Zm7.52-27.62c-.09,0-.13-.08-.13-.24a26.66,26.66,0,0,0-1.72,4.92l.48.24,1.48-4.92Zm.37,1.48-2,5.43.51.24a24.53,24.53,0,0,1,1-3,15.19,15.19,0,0,0,.75-2.47Zm4-16.28-2.23,6.91.49.24c1.15-3.77,1.81-6.09,2-6.9A.22.22,0,0,0,656.63,785.69Zm2.45-14.55v-.24l-1.48,4.94h.24l1.5-4.7Zm1.74-5.91-1,3.2h.11c.09,0,.13.08.13.24.16-.64.33-1.24.49-1.72s.33-1,.5-1.48A.21.21,0,0,1,660.82,765.23Zm3-11.36-1.24,3.46.24.24,1.24-3.7Zm-8.65,66.6-.73,3.69a22.21,22.21,0,0,0,1-3.69Zm8.65-66.6-1.24,3.46.24.24,1.24-3.7Zm-3,11.36-1,3.2h.11c.09,0,.13.08.13.24.16-.64.33-1.24.49-1.72s.33-1,.5-1.48A.21.21,0,0,1,660.82,765.23Zm-1.74,5.91v-.24l-1.48,4.94h.24l1.5-4.7Zm-2.45,14.55-2.23,6.91.49.24c1.15-3.77,1.81-6.09,2-6.9A.22.22,0,0,0,656.63,785.69Zm-1.5,34.78-.73,3.69a22.21,22.21,0,0,0,1-3.69ZM652.68,802l-2,5.43.51.24a24.53,24.53,0,0,1,1-3,15.19,15.19,0,0,0,.75-2.47Zm-.37-1.48c-.09,0-.13-.08-.13-.24a26.66,26.66,0,0,0-1.72,4.92l.48.24,1.48-4.92Zm-7.52,27.62-1.48,3.94h-.24l6.15-21.46h-.48l-8.14,26.16L634.18,857h.48c.84-3,2-6.3,3.47-10.1h.24l-.24,1.72h.48a30.35,30.35,0,0,1,1.74-4.92l4.68-15.3A.22.22,0,0,0,644.79,828.11Zm0,0-1.48,3.94h-.24l6.15-21.46h-.48l-8.14,26.16L634.18,857h.48c.84-3,2-6.3,3.47-10.1h.24l-.24,1.72h.48a30.35,30.35,0,0,1,1.74-4.92l4.68-15.3A.22.22,0,0,0,644.79,828.11Zm7.52-27.62c-.09,0-.13-.08-.13-.24a26.66,26.66,0,0,0-1.72,4.92l.48.24,1.48-4.92Zm.37,1.48-2,5.43.51.24a24.53,24.53,0,0,1,1-3,15.19,15.19,0,0,0,.75-2.47Zm4-16.28-2.23,6.91.49.24c1.15-3.77,1.81-6.09,2-6.9A.22.22,0,0,0,656.63,785.69Zm2.45-14.55v-.24l-1.48,4.94h.24l1.5-4.7Zm1.74-5.91-1,3.2h.11c.09,0,.13.08.13.24.16-.64.33-1.24.49-1.72s.33-1,.5-1.48A.21.21,0,0,1,660.82,765.23Zm3-11.36-1.24,3.46.24.24,1.24-3.7Zm-8.65,66.6-.73,3.69a22.21,22.21,0,0,0,1-3.69Zm8.65-66.6-1.24,3.46.24.24,1.24-3.7Zm-3,11.36-1,3.2h.11c.09,0,.13.08.13.24.16-.64.33-1.24.49-1.72s.33-1,.5-1.48A.21.21,0,0,1,660.82,765.23Zm-1.74,5.91v-.24l-1.48,4.94h.24l1.5-4.7Zm-2.45,14.55-2.23,6.91.49.24c1.15-3.77,1.81-6.09,2-6.9A.22.22,0,0,0,656.63,785.69Zm-1.5,34.78-.73,3.69a22.21,22.21,0,0,0,1-3.69ZM652.68,802l-2,5.43.51.24a24.53,24.53,0,0,1,1-3,15.19,15.19,0,0,0,.75-2.47Zm-.37-1.48c-.09,0-.13-.08-.13-.24a26.66,26.66,0,0,0-1.72,4.92l.48.24,1.48-4.92Zm-7.52,27.62-1.48,3.94h-.24l6.15-21.46h-.48l-8.14,26.16L634.18,857h.48c.84-3,2-6.3,3.47-10.1h.24l-.24,1.72h.48a30.35,30.35,0,0,1,1.74-4.92l4.68-15.3A.22.22,0,0,0,644.79,828.11Zm0,0-1.48,3.94h-.24l6.15-21.46h-.48l-8.14,26.16L634.18,857h.48c.84-3,2-6.3,3.47-10.1h.24l-.24,1.72h.48a30.35,30.35,0,0,1,1.74-4.92l4.68-15.3A.22.22,0,0,0,644.79,828.11Zm7.52-27.62c-.09,0-.13-.08-.13-.24a26.66,26.66,0,0,0-1.72,4.92l.48.24,1.48-4.92Zm.37,1.48-2,5.43.51.24a24.53,24.53,0,0,1,1-3,15.19,15.19,0,0,0,.75-2.47Zm4-16.28-2.23,6.91.49.24c1.15-3.77,1.81-6.09,2-6.9A.22.22,0,0,0,656.63,785.69Zm2.45-14.55v-.24l-1.48,4.94h.24l1.5-4.7Zm1.74-5.91-1,3.2h.11c.09,0,.13.08.13.24.16-.64.33-1.24.49-1.72s.33-1,.5-1.48A.21.21,0,0,1,660.82,765.23Zm3-11.36-1.24,3.46.24.24,1.24-3.7Zm-8.65,66.6-.73,3.69a22.21,22.21,0,0,0,1-3.69Zm8.65-66.6-1.24,3.46.24.24,1.24-3.7Zm-3,11.36-1,3.2h.11c.09,0,.13.08.13.24.16-.64.33-1.24.49-1.72s.33-1,.5-1.48A.21.21,0,0,1,660.82,765.23Zm-1.74,5.91v-.24l-1.48,4.94h.24l1.5-4.7Zm-2.45,14.55-2.23,6.91.49.24c1.15-3.77,1.81-6.09,2-6.9A.22.22,0,0,0,656.63,785.69Zm-1.5,34.78-.73,3.69a22.21,22.21,0,0,0,1-3.69ZM652.68,802l-2,5.43.51.24a24.53,24.53,0,0,1,1-3,15.19,15.19,0,0,0,.75-2.47Zm-.37-1.48c-.09,0-.13-.08-.13-.24a26.66,26.66,0,0,0-1.72,4.92l.48.24,1.48-4.92Zm-7.52,27.62-1.48,3.94h-.24l6.15-21.46h-.48l-8.14,26.16L634.18,857h.48c.84-3,2-6.3,3.47-10.1h.24l-.24,1.72h.48a30.35,30.35,0,0,1,1.74-4.92l4.68-15.3A.22.22,0,0,0,644.79,828.11Z"/></g></g></svg>